<?xml version="1.0" encoding="UTF-8" standalone="no"?>
<svg
   xmlns:dc="http://purl.org/dc/elements/1.1/"
   xmlns:cc="http://creativecommons.org/ns#"
   xmlns:rdf="http://www.w3.org/1999/02/22-rdf-syntax-ns#"
   xmlns:svg="http://www.w3.org/2000/svg"
   xmlns="http://www.w3.org/2000/svg"
   id="svg2"
   width="307.44479pt"
   viewBox="0 0 307.44479 145.01295"
   version="1.1"
   height="145.01295pt">
  <metadata
     id="metadata1360">
    <rdf:RDF>
      <cc:Work
         rdf:about="">
        <dc:format>image/svg+xml</dc:format>
        <dc:type
           rdf:resource="http://purl.org/dc/dcmitype/StillImage" />
        <dc:title></dc:title>
      </cc:Work>
    </rdf:RDF>
  </metadata>
  <defs
     style="stroke-linecap:butt;stroke-linejoin:round"
     id="defs4">
    <style
       id="style6"
       type="text/css">
*{stroke-linecap:butt;stroke-linejoin:round;}
  </style>
  </defs>
  <g
     transform="translate(-439.43345,-428.14362)"
     style="stroke-linecap:butt;stroke-linejoin:round"
     id="figure_1">
    <g
       style="stroke-linecap:butt;stroke-linejoin:round"
       id="axes_15">
      <g
         style="stroke-linecap:butt;stroke-linejoin:round"
         id="patch_30">
        <path
           id="path1139"
           style="fill:#f2f2e6;stroke:#d9d9cc;stroke-linecap:butt;stroke-linejoin:miter"
           d="m 497.44211,488.66823 1.15882,-0.30973 1.15881,-0.92157 1.15882,-1.51071 1.15882,-2.06267 1.15882,-2.56382 1.15882,-3.00185 1.15882,-3.36596 1.15881,-3.64719 1.15882,-3.83862 1.15882,-3.93552 1.15882,-3.93553 1.15882,-3.83861 1.15882,-3.6472 1.15881,-3.36596 1.15882,-3.00184 1.15882,-2.56383 1.15882,-2.06266 1.15882,-1.51072 1.15882,-0.92157 1.15881,-0.30973 1.15882,0 1.15882,0 1.15882,0 1.15882,0 1.15882,0 1.15881,0 1.15882,0 1.15882,0 1.15882,0 1.15882,0 1.15882,0 1.15881,0 1.15882,0 1.15882,0 1.15882,0 1.15882,0 1.15882,0 1.15881,0 1.15882,0 1.15882,0 1.15882,0 1.15882,0 1.15882,0 1.15881,0 1.15882,0 1.15882,0 1.15882,0 1.15882,0 1.15882,0 1.15881,0 1.15882,0 1.15882,0 1.15882,0 1.15882,0 1.15882,0 1.15881,0 1.15882,0 1.15882,0 1.15882,0 1.15882,0 1.15882,0 1.15881,0 1.15882,0 1.15882,0 1.15882,0 1.15882,0 1.15882,0 1.15881,0 1.15882,0 1.15882,0 1.15882,0 1.15882,0 1.15882,0 1.15881,0 1.15882,0 1.15882,0 1.15882,0 1.15882,0 1.15882,0 1.15881,0 1.15882,0 1.15882,0 1.15882,0 1.15882,0 1.15882,0 1.15882,0 1.15881,0 1.15882,0 1.15882,0 1.15882,0 1.15882,0 1.15882,0 1.15881,0 1.15882,0 1.15882,0 1.15882,0 1.15882,0 1.15881,0 1.15882,0 1.15882,0 1.15882,0 1.15882,0 1.15882,0 1.15881,0 1.15882,0 1.15882,0 1.15882,0 1.15882,0 1.15882,0 1.15881,0 1.15882,0 1.15882,0 1.15882,0 1.15882,0 1.15882,0 1.15882,0 1.15881,0 1.15882,0 1.15882,0 1.15882,0 1.15882,0 1.15881,0 1.15882,0 1.15882,0 1.15882,0 1.15882,0 1.15882,0 1.15881,0 1.15882,0 1.15882,0 1.15882,0 1.15882,0 1.15882,0 1.15881,0 1.15882,0 1.15882,0 1.15882,0 1.15882,0 1.15882,0 1.15882,0.0437 1.15881,0.54113 1.15882,1.1462 1.15882,1.72303 1.15882,2.25746 1.15882,2.73627 1.15882,3.14773 1.15881,3.48168 1.15882,3.72988 1.15882,3.88626 1.15882,3.94694 1.15882,3.91043 1.15881,3.77763 1.15882,3.55182 1.15882,3.23854 1.15882,2.84554 1.15882,2.38245 1.15882,1.86071 1.15881,1.29314 1.15882,0.69374 1.15882,0.12098 0,0 -1.15882,0.12099 -1.15882,0.69374 -1.15881,1.29314 -1.15882,1.86071 -1.15882,2.38245 -1.15882,2.84554 -1.15882,3.23854 -1.15882,3.55182 -1.15881,3.77764 -1.15882,3.91042 -1.15882,3.94694 -1.15882,3.88626 -1.15882,3.72988 -1.15881,3.48168 -1.15882,3.14773 -1.15882,2.73627 -1.15882,2.25746 -1.15882,1.72303 -1.15882,1.1462 -1.15881,0.54113 -1.15882,0.0437 -1.15882,0 -1.15882,0 -1.15882,0 -1.15882,0 -1.15882,0 -1.15881,0 -1.15882,0 -1.15882,0 -1.15882,0 -1.15882,0 -1.15882,0 -1.15881,0 -1.15882,0 -1.15882,0 -1.15882,0 -1.15882,0 -1.15882,0 -1.15881,0 -1.15882,0 -1.15882,0 -1.15882,0 -1.15882,0 -1.15881,0 -1.15882,0 -1.15882,0 -1.15882,0 -1.15882,0 -1.15882,0 -1.15882,0 -1.15881,0 -1.15882,0 -1.15882,0 -1.15882,0 -1.15882,0 -1.15882,0 -1.15881,0 -1.15882,0 -1.15882,0 -1.15882,0 -1.15882,0 -1.15882,0 -1.15881,0 -1.15882,0 -1.15882,0 -1.15882,0 -1.15882,0 -1.15881,0 -1.15882,0 -1.15882,0 -1.15882,0 -1.15882,0 -1.15882,0 -1.15881,0 -1.15882,0 -1.15882,0 -1.15882,0 -1.15882,0 -1.15882,0 -1.15882,0 -1.15881,0 -1.15882,0 -1.15882,0 -1.15882,0 -1.15882,0 -1.15882,0 -1.15881,0 -1.15882,0 -1.15882,0 -1.15882,0 -1.15882,0 -1.15882,0 -1.15881,0 -1.15882,0 -1.15882,0 -1.15882,0 -1.15882,0 -1.15882,0 -1.15881,0 -1.15882,0 -1.15882,0 -1.15882,0 -1.15882,0 -1.15882,0 -1.15881,0 -1.15882,0 -1.15882,0 -1.15882,0 -1.15882,0 -1.15882,0 -1.15881,0 -1.15882,0 -1.15882,0 -1.15882,0 -1.15882,0 -1.15882,0 -1.15881,0 -1.15882,0 -1.15882,0 -1.15882,0 -1.15882,0 -1.15882,0 -1.15881,0 -1.15882,0 -1.15882,0 -1.15882,0 -1.15882,0 -1.15882,0 -1.15881,0 -1.15882,0 -1.15882,0 -1.15882,0 -1.15882,0 -1.15882,0 -1.15881,0 -1.15882,0 -1.15882,0 -1.15882,0 -1.15882,0 -1.15882,0 -1.15881,-0.30973 -1.15882,-0.92157 -1.15882,-1.51072 -1.15882,-2.06266 -1.15882,-2.56383 -1.15882,-3.00184 -1.15881,-3.36597 -1.15882,-3.64719 -1.15882,-3.83862 -1.15882,-3.93552 -1.15882,-3.93552 -1.15882,-3.83862 -1.15881,-3.64719 -1.15882,-3.36596 -1.15882,-3.00185 -1.15882,-2.56382 -1.15882,-2.06267 -1.15882,-1.51071 -1.15881,-0.92157 z"
           clip-path="url(#p4e8e04ec36)" />
      </g>
      <g
         style="stroke-linecap:butt;stroke-linejoin:round"
         id="patch_31">
        <path
           id="path1142"
           style="fill:#f0b2b2;stroke:#cc0000;stroke-linecap:butt;stroke-linejoin:miter"
           d="m 497.44211,572.52706 1.15882,0 1.15881,-4e-5 1.15882,-2.3e-4 1.15882,-6.2e-4 1.15882,-8.7e-4 1.15882,-4.1e-4 1.15882,7.3e-4 1.15881,10e-4 1.15882,-7e-4 1.15882,-0.006 1.15882,-0.0108 1.15882,-0.0115 1.15882,-0.005 1.15881,0.005 1.15882,0.0117 1.15882,0.0116 1.15882,0.006 1.15882,-2.5e-4 1.15882,-0.003 1.15881,-0.002 1.15882,-1.7e-4 1.15882,2.9e-4 1.15882,-3.6e-4 1.15882,-0.002 1.15882,-0.004 1.15881,-0.005 1.15882,-0.005 1.15882,-0.001 1.15882,0.004 1.15882,0.008 1.15882,0.008 1.15881,0.002 1.15882,-0.008 1.15882,-0.0175 1.15882,-0.0216 1.15882,-0.0166 1.15882,-0.003 1.15881,0.0131 1.15882,0.0237 1.15882,0.0219 1.15882,0.009 1.15882,-0.008 1.15882,-0.0159 1.15881,-0.0124 1.15882,-0.002 1.15882,0.007 1.15882,0.009 1.15882,0.007 1.15882,0.004 1.15881,0.002 1.15882,0.002 1.15882,0.004 1.15882,0.004 1.15882,-3.5e-4 1.15882,-0.01 1.15881,-0.0165 1.15882,-0.012 1.15882,0.002 1.15882,0.0128 1.15882,0.0137 1.15882,0.008 1.15881,0.002 1.15882,-4.3e-4 1.15882,-0.002 1.15882,-10e-4 1.15882,0.003 1.15882,0.003 1.15881,-0.006 1.15882,-0.0154 1.15882,-0.009 1.15882,0.01 1.15882,0.0156 1.15882,0.005 1.15881,2e-5 1.15882,-0.0103 1.15882,-0.0888 1.15882,-0.24013 1.15882,-0.29201 1.15882,-0.0424 1.15881,0.35929 1.15882,0.31426 1.15882,-0.62818 1.15882,-1.95309 1.15882,-2.26886 1.15882,-0.68431 1.15882,1.81212 1.15881,2.80102 1.15882,0.78939 1.15882,-2.84498 1.15882,-4.72998 1.15882,-2.74141 1.15882,1.66056 1.15881,4.63948 1.15882,3.67265 1.15882,-0.0607 1.15882,-3.00706 1.15882,-2.75155 1.15881,-0.0574 1.15882,2.36693 1.15882,2.66924 1.15882,1.25955 1.15882,-0.18905 1.15882,-0.58703 1.15881,-0.14939 1.15882,0.31889 1.15882,0.38885 1.15882,0.20663 1.15882,0.0542 1.15882,5.9e-4 1.15881,-0.0304 1.15882,-0.0577 1.15882,-0.0304 1.15882,0.0448 1.15882,0.0737 1.15882,-0.004 1.15882,-0.12374 1.15881,-0.15908 1.15882,-0.0654 1.15882,0.0761 1.15882,0.14872 1.15882,0.11334 1.15881,0.0263 1.15882,-0.0331 1.15882,-0.0343 1.15882,-0.003 1.15882,0.0225 1.15882,0.0255 1.15881,0.0153 1.15882,0.006 1.15882,10e-4 1.15882,-8.6e-4 1.15882,-0.002 1.15882,-0.002 1.15881,7.3e-4 1.15882,0.003 1.15882,0.002 1.15882,-0.003 1.15882,-0.0101 1.15882,-0.0134 1.15882,-0.0101 1.15881,-6.9e-4 1.15882,0.01 1.15882,0.0145 1.15882,0.0111 1.15882,0.002 1.15882,-0.007 1.15881,-0.009 1.15882,-0.004 1.15882,0.004 1.15882,0.008 1.15882,0.007 1.15881,0.002 1.15882,-4.1e-4 1.15882,-4.9e-4 1.15882,2.6e-4 1.15882,4.5e-4 1.15882,2e-4 1.15881,3e-5 1.15882,0 1.15882,0 0,0 -1.15882,0 -1.15882,0 -1.15881,0 -1.15882,0 -1.15882,0 -1.15882,0 -1.15882,0 -1.15882,0 -1.15881,0 -1.15882,0 -1.15882,0 -1.15882,0 -1.15882,0 -1.15881,0 -1.15882,0 -1.15882,0 -1.15882,0 -1.15882,0 -1.15882,0 -1.15881,0 -1.15882,0 -1.15882,0 -1.15882,0 -1.15882,0 -1.15882,0 -1.15882,0 -1.15881,0 -1.15882,0 -1.15882,0 -1.15882,0 -1.15882,0 -1.15882,0 -1.15881,0 -1.15882,0 -1.15882,0 -1.15882,0 -1.15882,0 -1.15882,0 -1.15881,0 -1.15882,0 -1.15882,0 -1.15882,0 -1.15882,0 -1.15881,0 -1.15882,0 -1.15882,0 -1.15882,0 -1.15882,0 -1.15882,0 -1.15882,0 -1.15881,0 -1.15882,0 -1.15882,0 -1.15882,0 -1.15882,0 -1.15882,0 -1.15881,0 -1.15882,0 -1.15882,0 -1.15882,0 -1.15882,0 -1.15882,0 -1.15881,0 -1.15882,0 -1.15882,0 -1.15882,0 -1.15882,0 -1.15881,0 -1.15882,0 -1.15882,0 -1.15882,0 -1.15882,0 -1.15882,0 -1.15881,0 -1.15882,0 -1.15882,0 -1.15882,0 -1.15882,0 -1.15882,0 -1.15882,0 -1.15881,0 -1.15882,0 -1.15882,0 -1.15882,0 -1.15882,0 -1.15882,0 -1.15881,0 -1.15882,0 -1.15882,0 -1.15882,0 -1.15882,0 -1.15882,0 -1.15881,0 -1.15882,0 -1.15882,0 -1.15882,0 -1.15882,0 -1.15882,0 -1.15881,0 -1.15882,0 -1.15882,0 -1.15882,0 -1.15882,0 -1.15882,0 -1.15881,0 -1.15882,0 -1.15882,0 -1.15882,0 -1.15882,0 -1.15882,0 -1.15881,0 -1.15882,0 -1.15882,0 -1.15882,0 -1.15882,0 -1.15882,0 -1.15881,0 -1.15882,0 -1.15882,0 -1.15882,0 -1.15882,0 -1.15882,0 -1.15881,0 -1.15882,0 -1.15882,0 -1.15882,0 -1.15882,0 -1.15882,0 -1.15881,0 -1.15882,0 -1.15882,0 -1.15882,0 -1.15882,0 -1.15882,0 -1.15881,0 -1.15882,0 -1.15882,0 -1.15882,0 -1.15882,0 -1.15882,0 -1.15881,0 -1.15882,0 -1.15882,0 -1.15882,0 -1.15882,0 -1.15882,0 -1.15881,0 -1.15882,0 -1.15882,0 -1.15882,0 -1.15882,0 -1.15882,0 -1.15881,0 -1.15882,0 -1.15882,0 -1.15882,0 -1.15882,0 -1.15882,0 -1.15881,0 z" />
      </g>
      <g
         style="stroke-linecap:butt;stroke-linejoin:round"
         id="line2d_43">
        <path
           id="path1145"
           style="fill:none;stroke:#595940;stroke-width:1.5;stroke-linecap:square;stroke-linejoin:round"
           d="m 497.44211,538.98353 0,-55.90588"
           clip-path="url(#p4e8e04ec36)" />
      </g>
      <g
         style="stroke-linecap:butt;stroke-linejoin:round"
         id="line2d_44">
        <path
           id="path1148"
           style="fill:none;stroke:#595940;stroke-width:1.5;stroke-linecap:square;stroke-linejoin:round"
           d="m 682.85304,538.98353 0,-55.90588"
           clip-path="url(#p4e8e04ec36)" />
      </g>
      <g
         style="stroke-linecap:butt;stroke-linejoin:round"
         id="text_22">
        <!-- $\,$ -00:34 min -->
        <g
           id="g1151"
           transform="matrix(0.1,0,0,-0.1,434.14211,534.90384)"
           style="fill:#595940;stroke-linecap:butt;stroke-linejoin:round">
          <path
             style="stroke-linecap:butt;stroke-linejoin:round"
             d=""
             id="use1153" />
          <path
             style="stroke-linecap:butt;stroke-linejoin:round"
             d="m 52.913411,31.40625 26.3125,0 0,-8 -26.3125,0 z"
             id="use1155" />
          <path
             style="stroke-linecap:butt;stroke-linejoin:round"
             d="m 115.88802,66.421875 q -7.60938,0 -11.45313,-7.5 -3.82812,-7.484375 -3.82812,-22.53125 0,-14.984375 3.82812,-22.484375 3.84375,-7.5 11.45313,-7.5 7.67187,0 11.5,7.5 3.84375,7.5 3.84375,22.484375 0,15.046875 -3.84375,22.53125 -3.82813,7.5 -11.5,7.5 m 0,7.8125 q 12.26562,0 18.73437,-9.703125 6.46875,-9.6875 6.46875,-28.140625 0,-18.40625 -6.46875,-28.109375 -6.46875,-9.6875 -18.73437,-9.6875 -12.25,0 -18.71875,9.6875 -6.46875,9.703125 -6.46875,28.109375 0,18.453125 6.46875,28.140625 6.46875,9.703125 18.71875,9.703125"
             id="use1157" />
          <path
             style="stroke-linecap:butt;stroke-linejoin:round"
             d="m 179.51107,66.421875 q -7.60938,0 -11.45313,-7.5 -3.82812,-7.484375 -3.82812,-22.53125 0,-14.984375 3.82812,-22.484375 3.84375,-7.5 11.45313,-7.5 7.67187,0 11.5,7.5 3.84375,7.5 3.84375,22.484375 0,15.046875 -3.84375,22.53125 -3.82813,7.5 -11.5,7.5 m 0,7.8125 q 12.26562,0 18.73437,-9.703125 6.46875,-9.6875 6.46875,-28.140625 0,-18.40625 -6.46875,-28.109375 -6.46875,-9.6875 -18.73437,-9.6875 -12.25,0 -18.71875,9.6875 -6.46875,9.703125 -6.46875,28.109375 0,18.453125 6.46875,28.140625 6.46875,9.703125 18.71875,9.703125"
             id="use1159" />
          <path
             style="stroke-linecap:butt;stroke-linejoin:round"
             d="m 223.07161,12.421875 10.29688,0 0,-12.40625 -10.29688,0 z m 0,39.296875 10.29688,0 0,-12.390625 -10.29688,0 z"
             id="use1161" />
          <path
             style="stroke-linecap:butt;stroke-linejoin:round"
             d="m 285.62239,39.328125 q 7.07813,-1.515625 11.04688,-6.3125 3.98437,-4.78125 3.98437,-11.8125 0,-10.78125 -7.42187,-16.703125 -7.42188,-5.90625 -21.09375,-5.90625 -4.57813,0 -9.4375,0.90625 -4.85938,0.90625 -10.03125,2.71875 l 0,9.515625 q 4.09375,-2.390625 8.96875,-3.609375 4.89062,-1.21875 10.21875,-1.21875 9.26562,0 14.125,3.65625 4.85937,3.65625 4.85937,10.640625 0,6.453125 -4.51562,10.078125 -4.51563,3.640625 -12.5625,3.640625 l -8.5,0 0,8.109375 8.89062,0 q 7.26563,0 11.125,2.90625 3.85938,2.90625 3.85938,8.375 0,5.609375 -3.98438,8.609375 -3.96875,3.015625 -11.39062,3.015625 -4.0625,0 -8.70313,-0.890625 -4.64062,-0.875 -10.20312,-2.71875 l 0,8.78125 q 5.625,1.5625 10.53125,2.34375 4.90625,0.78125 9.25,0.78125 11.23437,0 17.76562,-5.109375 6.54688,-5.09375 6.54688,-13.78125 0,-6.0625 -3.46875,-10.234375 -3.46875,-4.171875 -9.85938,-5.78125"
             id="use1163" />
          <path
             style="stroke-linecap:butt;stroke-linejoin:round"
             d="m 346.46419,64.328125 -24.90625,-38.921875 24.90625,0 z m -2.59375,8.59375 12.40625,0 0,-47.515625 10.40625,0 0,-8.203125 -10.40625,0 0,-17.1875 -9.8125,0 0,17.1875 -32.90625,0 0,9.515625 z"
             id="use1165" />
          <path
             style="stroke-linecap:butt;stroke-linejoin:round"
             d=""
             id="use1167" />
          <path
             style="stroke-linecap:butt;stroke-linejoin:round"
             d="m 456.07747,44.203125 q 3.375,6.0625 8.0625,8.9375 4.6875,2.875 11.03125,2.875 8.54688,0 13.1875,-5.984375 4.64063,-5.96875 4.64063,-17 l 0,-33.015625 -9.03125,0 0,32.71875 q 0,7.859375 -2.79688,11.65625 -2.78125,3.8125 -8.48437,3.8125 -6.98438,0 -11.04688,-4.640625 -4.04687,-4.625 -4.04687,-12.640625 l 0,-30.90625 -9.03125,0 0,32.71875 q 0,7.90625 -2.78125,11.6875 -2.78125,3.78125 -8.59375,3.78125 -6.89063,0 -10.95313,-4.65625 -4.04687,-4.65625 -4.04687,-12.625 l 0,-30.90625 -9.03125,0 0,54.6875 9.03125,0 0,-8.5 q 3.07812,5.03125 7.375,7.421875 4.29687,2.390625 10.20312,2.390625 5.96875,0 10.14063,-3.03125 4.17187,-3.015625 6.17187,-8.78125"
             id="use1169" />
          <path
             style="stroke-linecap:butt;stroke-linejoin:round"
             d="m 510.91146,54.703125 8.98437,0 0,-54.6875 -8.98437,0 z m 0,21.296875 8.98437,0 0,-11.390625 -8.98437,0 z"
             id="use1171" />
          <path
             style="stroke-linecap:butt;stroke-linejoin:round"
             d="m 584.16341,33.03125 0,-33.015625 -8.98437,0 0,32.71875 q 0,7.765625 -3.03125,11.609375 -3.03125,3.859375 -9.07813,3.859375 -7.28125,0 -11.48437,-4.640625 -4.20313,-4.625 -4.20313,-12.640625 l 0,-30.90625 -9.03125,0 0,54.6875 9.03125,0 0,-8.5 q 3.23438,4.9375 7.59375,7.375 4.375,2.4375 10.09375,2.4375 9.42188,0 14.25,-5.828125 4.84375,-5.828125 4.84375,-17.15625"
             id="use1173" />
        </g>
      </g>
      <g
         style="stroke-linecap:butt;stroke-linejoin:round"
         id="text_23">
        <!-- $\Delta$ 02:40 min -->
        <g
           id="g1176"
           transform="matrix(0.1,0,0,-0.1,686.85304,534.90384)"
           style="fill:#595940;stroke-linecap:butt;stroke-linejoin:round">
          <path
             style="stroke-linecap:butt;stroke-linejoin:round"
             d="M 34.1875,63.203125 14.15625,8.21875 l 40.09375,0 z m -33.40625,-63.1875 27.828125,72.90625 11.1875,0 27.78125,-72.90625 z"
             id="use1178" />
          <path
             style="stroke-linecap:butt;stroke-linejoin:round"
             d=""
             id="use1180" />
          <path
             style="stroke-linecap:butt;stroke-linejoin:round"
             d="m 131.97656,66.421875 q -7.60937,0 -11.45312,-7.5 -3.82813,-7.484375 -3.82813,-22.53125 0,-14.984375 3.82813,-22.484375 3.84375,-7.5 11.45312,-7.5 7.67188,0 11.5,7.5 3.84375,7.5 3.84375,22.484375 0,15.046875 -3.84375,22.53125 -3.82812,7.5 -11.5,7.5 m 0,7.8125 q 12.26563,0 18.73438,-9.703125 6.46875,-9.6875 6.46875,-28.140625 0,-18.40625 -6.46875,-28.109375 -6.46875,-9.6875 -18.73438,-9.6875 -12.25,0 -18.71875,9.6875 -6.46875,9.703125 -6.46875,28.109375 0,18.453125 6.46875,28.140625 6.46875,9.703125 18.71875,9.703125"
             id="use1182" />
          <path
             style="stroke-linecap:butt;stroke-linejoin:round"
             d="m 183.00586,8.3125 34.42187,0 0,-8.296875 -46.28125,0 0,8.296875 q 5.60938,5.8125 15.29688,15.59375 9.70312,9.796875 12.1875,12.640625 4.73437,5.3125 6.60937,9 1.89063,3.6875 1.89063,7.25 0,5.8125 -4.07813,9.46875 -4.07812,3.671875 -10.625,3.671875 -4.64062,0 -9.79687,-1.609375 -5.14063,-1.609375 -11,-4.890625 l 0,9.96875 q 5.95312,2.390625 11.125,3.609375 5.1875,1.21875 9.48437,1.21875 11.32813,0 18.0625,-5.671875 6.73438,-5.65625 6.73438,-15.125 0,-4.5 -1.6875,-8.53125 -1.67188,-4.015625 -6.125,-9.484375 Q 208.00586,34 201.45898,27.234375 194.92773,20.46875 183.00586,8.3125"
             id="use1184" />
          <path
             style="stroke-linecap:butt;stroke-linejoin:round"
             d="m 239.16016,12.421875 10.29687,0 0,-12.40625 -10.29687,0 z m 0,39.296875 10.29687,0 0,-12.390625 -10.29687,0 z"
             id="use1186" />
          <path
             style="stroke-linecap:butt;stroke-linejoin:round"
             d="m 298.92969,64.328125 -24.90625,-38.921875 24.90625,0 z m -2.59375,8.59375 12.40625,0 0,-47.515625 10.40625,0 0,-8.203125 -10.40625,0 0,-17.1875 -9.8125,0 0,17.1875 -32.90625,0 0,9.515625 z"
             id="use1188" />
          <path
             style="stroke-linecap:butt;stroke-linejoin:round"
             d="m 356.53711,66.421875 q -7.60938,0 -11.45313,-7.5 -3.82812,-7.484375 -3.82812,-22.53125 0,-14.984375 3.82812,-22.484375 3.84375,-7.5 11.45313,-7.5 7.67187,0 11.5,7.5 3.84375,7.5 3.84375,22.484375 0,15.046875 -3.84375,22.53125 -3.82813,7.5 -11.5,7.5 m 0,7.8125 q 12.26562,0 18.73437,-9.703125 6.46875,-9.6875 6.46875,-28.140625 0,-18.40625 -6.46875,-28.109375 -6.46875,-9.6875 -18.73437,-9.6875 -12.25,0 -18.71875,9.6875 -6.46875,9.703125 -6.46875,28.109375 0,18.453125 6.46875,28.140625 6.46875,9.703125 18.71875,9.703125"
             id="use1190" />
          <path
             style="stroke-linecap:butt;stroke-linejoin:round"
             d=""
             id="use1192" />
          <path
             style="stroke-linecap:butt;stroke-linejoin:round"
             d="m 472.16602,44.203125 q 3.375,6.0625 8.0625,8.9375 4.6875,2.875 11.03125,2.875 8.54687,0 13.1875,-5.984375 4.64062,-5.96875 4.64062,-17 l 0,-33.015625 -9.03125,0 0,32.71875 q 0,7.859375 -2.79687,11.65625 -2.78125,3.8125 -8.48438,3.8125 -6.98437,0 -11.04687,-4.640625 -4.04688,-4.625 -4.04688,-12.640625 l 0,-30.90625 -9.03125,0 0,32.71875 q 0,7.90625 -2.78125,11.6875 -2.78125,3.78125 -8.59375,3.78125 -6.89062,0 -10.95312,-4.65625 -4.04688,-4.65625 -4.04688,-12.625 l 0,-30.90625 -9.03125,0 0,54.6875 9.03125,0 0,-8.5 q 3.07813,5.03125 7.375,7.421875 4.29688,2.390625 10.20313,2.390625 5.96875,0 10.14062,-3.03125 4.17188,-3.015625 6.17188,-8.78125"
             id="use1194" />
          <path
             style="stroke-linecap:butt;stroke-linejoin:round"
             d="m 527,54.703125 8.98437,0 0,-54.6875 -8.98437,0 z M 527,76 l 8.98437,0 0,-11.390625 -8.98437,0 z"
             id="use1196" />
          <path
             style="stroke-linecap:butt;stroke-linejoin:round"
             d="m 600.25195,33.03125 0,-33.015625 -8.98437,0 0,32.71875 q 0,7.765625 -3.03125,11.609375 -3.03125,3.859375 -9.07813,3.859375 -7.28125,0 -11.48437,-4.640625 -4.20313,-4.625 -4.20313,-12.640625 l 0,-30.90625 -9.03125,0 0,54.6875 9.03125,0 0,-8.5 q 3.23438,4.9375 7.59375,7.375 4.375,2.4375 10.09375,2.4375 9.42188,0 14.25,-5.828125 4.84375,-5.828125 4.84375,-17.15625"
             id="use1198" />
        </g>
      </g>
      <g
         style="stroke-linecap:butt;stroke-linejoin:round"
         id="text_24">
        <!-- SA.ENMS.T -->
        <g
           style="stroke-linecap:butt;stroke-linejoin:round"
           id="g1201"
           transform="matrix(0.1,0,0,-0.1,461.10588,435.5655)">
          <path
             style="stroke-linecap:butt;stroke-linejoin:round"
             d="m 53.515625,70.515625 0,-9.625 q -5.609375,2.6875 -10.59375,4 -4.984375,1.328125 -9.625,1.328125 -8.046875,0 -12.421875,-3.125 -4.375,-3.125 -4.375,-8.890625 0,-4.84375 2.90625,-7.3125 2.90625,-2.453125 11.015625,-3.96875 L 36.375,41.703125 Q 47.40625,39.59375 52.65625,34.296875 57.90625,29 57.90625,20.125 q 0,-10.609375 -7.109375,-16.078125 -7.09375,-5.46875 -20.8125,-5.46875 -5.171875,0 -11.015625,1.171875 -5.828125,1.171875 -12.078125,3.46875 l 0,10.15625 q 6,-3.359375 11.765625,-5.078125 5.765625,-1.703125 11.328125,-1.703125 8.4375,0 13.03125,3.3125 4.59375,3.328125 4.59375,9.484375 0,5.359375 -3.296875,8.390625 Q 41.015625,30.8125 33.5,32.328125 L 27.484375,33.5 q -11.03125,2.1875 -15.96875,6.875 -4.921875,4.6875 -4.921875,13.046875 0,9.671875 6.8125,15.234375 6.8125,5.5625 18.765625,5.5625 5.140625,0 10.453125,-0.9375 5.328125,-0.921875 10.890625,-2.765625"
             id="use1203" />
          <path
             style="stroke-linecap:butt;stroke-linejoin:round"
             d="m 97.679687,63.1875 -13.390625,-36.28125 26.812498,0 z m -5.578125,9.71875 11.187498,0 L 131.07031,0 l -10.25,0 -6.64062,18.703125 -32.859378,0 L 74.679687,0 64.273437,0 Z"
             id="use1205" />
          <path
             style="stroke-linecap:butt;stroke-linejoin:round"
             d="m 142.57227,12.40625 10.3125,0 0,-12.40625 -10.3125,0 z"
             id="use1207" />
          <path
             style="stroke-linecap:butt;stroke-linejoin:round"
             d="m 173.48437,72.90625 46.09375,0 0,-8.3125 -36.23437,0 0,-21.578125 34.71875,0 0,-8.296875 -34.71875,0 0,-26.421875 37.10937,0 0,-8.296875 -46.96875,0 z"
             id="use1209" />
          <path
             style="stroke-linecap:butt;stroke-linejoin:round"
             d="m 236.66797,72.90625 13.28125,0 32.32812,-60.984375 0,60.984375 9.5625,0 0,-72.90625 -13.28125,0 -32.3125,60.984375 0,-60.984375 -9.57812,0 z"
             id="use1211" />
          <path
             style="stroke-linecap:butt;stroke-linejoin:round"
             d="m 311.47266,72.90625 14.70312,0 18.59375,-49.609375 18.70313,49.609375 14.70312,0 0,-72.90625 -9.625,0 0,64.015625 -18.79687,-50 -9.90625,0 -18.79688,50 0,-64.015625 -9.57812,0 z"
             id="use1213" />
          <path
             style="stroke-linecap:butt;stroke-linejoin:round"
             d="m 441.45508,70.515625 0,-9.625 q -5.60938,2.6875 -10.59375,4 -4.98438,1.328125 -9.625,1.328125 -8.04688,0 -12.42188,-3.125 -4.375,-3.125 -4.375,-8.890625 0,-4.84375 2.90625,-7.3125 2.90625,-2.453125 11.01563,-3.96875 l 5.95312,-1.21875 Q 435.3457,39.59375 440.5957,34.296875 445.8457,29 445.8457,20.125 q 0,-10.609375 -7.10937,-16.078125 -7.09375,-5.46875 -20.8125,-5.46875 -5.17188,0 -11.01563,1.171875 -5.82812,1.171875 -12.07812,3.46875 l 0,10.15625 q 6,-3.359375 11.76562,-5.078125 5.76563,-1.703125 11.32813,-1.703125 8.4375,0 13.03125,3.3125 4.59375,3.328125 4.59375,9.484375 0,5.359375 -3.29688,8.390625 -3.29687,3.03125 -10.8125,4.546875 L 415.42383,33.5 q -11.03125,2.1875 -15.96875,6.875 -4.92188,4.6875 -4.92188,13.046875 0,9.671875 6.8125,15.234375 6.8125,5.5625 18.76563,5.5625 5.14062,0 10.45312,-0.9375 5.32813,-0.921875 10.89063,-2.765625"
             id="use1215" />
          <path
             style="stroke-linecap:butt;stroke-linejoin:round"
             d="m 462.10352,12.40625 10.3125,0 0,-12.40625 -10.3125,0 z"
             id="use1217" />
          <path
             style="stroke-linecap:butt;stroke-linejoin:round"
             d="m 482.90625,72.90625 61.67187,0 0,-8.3125 -25.875,0 0,-64.59375 -9.90625,0 0,64.59375 -25.89062,0 z"
             id="use1219" />
        </g>
        <!-- 187 km -->
        <g
           style="stroke-linecap:butt;stroke-linejoin:round"
           id="g1221"
           transform="matrix(0.1,0,0,-0.1,461.10588,446.76331)">
          <path
             style="stroke-linecap:butt;stroke-linejoin:round"
             d="m 12.40625,8.296875 16.109375,0 0,55.625 -17.53125,-3.515625 0,8.984375 17.4375,3.515625 9.859375,0 0,-64.609375 16.109375,0 0,-8.296875 -41.984375,0 z"
             id="use1223" />
          <path
             style="stroke-linecap:butt;stroke-linejoin:round"
             d="m 95.404297,34.625 q -7.03125,0 -11.0625,-3.765625 -4.015625,-3.765625 -4.015625,-10.34375 0,-6.59375 4.015625,-10.359375 4.03125,-3.765625 11.0625,-3.765625 7.031253,0 11.078123,3.78125 4.0625,3.796875 4.0625,10.34375 0,6.578125 -4.03125,10.34375 Q 102.49805,34.625 95.404297,34.625 m -9.859375,4.1875 q -6.34375,1.5625 -9.890625,5.90625 -3.53125,4.359375 -3.53125,10.609375 0,8.734375 6.21875,13.8125 6.234375,5.078125 17.0625,5.078125 10.890623,0 17.093753,-5.078125 6.20312,-5.078125 6.20312,-13.8125 0,-6.25 -3.54687,-10.609375 -3.53125,-4.34375 -9.82813,-5.90625 7.125,-1.65625 11.09375,-6.5 3.98438,-4.828125 3.98438,-11.796875 0,-10.609375 -6.46875,-16.28125 -6.46875,-5.65625 -18.531253,-5.65625 -12.046875,0 -18.53125,5.65625 -6.46875,5.671875 -6.46875,16.28125 0,6.96875 4,11.796875 4.015625,4.84375 11.140625,6.5 m -3.609375,15.578125 q 0,-5.65625 3.53125,-8.828125 3.546875,-3.171875 9.9375,-3.171875 6.359373,0 9.937503,3.171875 3.59375,3.171875 3.59375,8.828125 0,5.671875 -3.59375,8.84375 -3.57813,3.171875 -9.937503,3.171875 -6.390625,0 -9.9375,-3.171875 -3.53125,-3.171875 -3.53125,-8.84375"
             id="use1225" />
          <path
             style="stroke-linecap:butt;stroke-linejoin:round"
             d="m 135.44922,72.90625 46.875,0 0,-4.203125 L 155.85547,0 l -10.29688,0 24.90625,64.59375 -35.01562,0 z"
             id="use1227" />
          <path
             style="stroke-linecap:butt;stroke-linejoin:round"
             d=""
             id="use1229" />
          <path
             style="stroke-linecap:butt;stroke-linejoin:round"
             d="m 231.73437,75.984375 9.03125,0 0,-44.875 26.8125,23.578125 11.46875,0 -29,-25.578125 L 280.28125,0 268.5625,0 240.76562,26.703125 240.76562,0 231.73437,0 Z"
             id="use1231" />
          <path
             style="stroke-linecap:butt;stroke-linejoin:round"
             d="m 332.56641,44.1875 q 3.375,6.0625 8.0625,8.9375 4.6875,2.875 11.03125,2.875 8.54687,0 13.1875,-5.984375 4.64062,-5.96875 4.64062,-17 l 0,-33.015625 -9.03125,0 0,32.71875 q 0,7.859375 -2.79687,11.65625 -2.78125,3.8125 -8.48438,3.8125 -6.98437,0 -11.04687,-4.640625 -4.04688,-4.625 -4.04688,-12.640625 l 0,-30.90625 -9.03125,0 0,32.71875 q 0,7.90625 -2.78125,11.6875 -2.78125,3.78125 -8.59375,3.78125 -6.89062,0 -10.95312,-4.65625 -4.04688,-4.65625 -4.04688,-12.625 l 0,-30.90625 -9.03125,0 0,54.6875 9.03125,0 0,-8.5 q 3.07813,5.03125 7.375,7.421875 Q 310.34766,56 316.25391,56 q 5.96875,0 10.14062,-3.03125 4.17188,-3.015625 6.17188,-8.78125"
             id="use1233" />
        </g>
        <!-- -3° -->
        <g
           style="stroke-linecap:butt;stroke-linejoin:round"
           id="g1235"
           transform="matrix(0.1,0,0,-0.1,461.10588,457.96112)">
          <path
             style="stroke-linecap:butt;stroke-linejoin:round"
             d="m 4.890625,31.390625 26.3125,0 0,-8 -26.3125,0 z"
             id="use1237" />
          <path
             style="stroke-linecap:butt;stroke-linejoin:round"
             d="M 76.662109,39.3125 Q 83.740234,37.796875 87.708984,33 q 3.984375,-4.78125 3.984375,-11.8125 0,-10.78125 -7.421875,-16.703125 -7.421875,-5.90625 -21.09375,-5.90625 -4.578125,0 -9.4375,0.90625 -4.859375,0.90625 -10.03125,2.71875 l 0,9.515625 q 4.09375,-2.390625 8.96875,-3.609375 4.890625,-1.21875 10.21875,-1.21875 9.265625,0 14.125,3.65625 4.859375,3.65625 4.859375,10.640625 0,6.453125 -4.515625,10.078125 -4.515625,3.640625 -12.5625,3.640625 l -8.5,0 0,8.109375 8.890625,0 q 7.265625,0 11.125,2.90625 3.859375,2.90625 3.859375,8.375 0,5.609375 -3.984375,8.609375 -3.96875,3.015625 -11.390625,3.015625 -4.0625,0 -8.703125,-0.890625 -4.640625,-0.875 -10.203125,-2.71875 l 0,8.78125 q 5.625,1.5625 10.53125,2.34375 4.90625,0.78125 9.25,0.78125 11.234375,0 17.765625,-5.109375 6.546875,-5.09375 6.546875,-13.78125 0,-6.0625 -3.46875,-10.234375 -3.46875,-4.171875 -9.859375,-5.78125"
             id="use1239" />
          <path
             style="stroke-linecap:butt;stroke-linejoin:round"
             d="m 124.70703,67.921875 q -3.90625,0 -6.59375,-2.71875 -2.6875,-2.703125 -2.6875,-6.609375 0,-3.859375 2.6875,-6.515625 2.6875,-2.65625 6.59375,-2.65625 3.90625,0 6.59375,2.65625 2.6875,2.65625 2.6875,6.515625 0,3.859375 -2.71875,6.59375 -2.70312,2.734375 -6.5625,2.734375 m 0,6.296875 q 3.125,0 6,-1.203125 2.89063,-1.1875 4.98438,-3.4375 2.25,-2.1875 3.375,-4.984375 1.125,-2.78125 1.125,-6 0,-6.4375 -4.51563,-10.90625 -4.51562,-4.46875 -11.0625,-4.46875 -6.59375,0 -11,4.390625 Q 109.22266,52 109.22266,58.59375 q 0,6.546875 4.48437,11.078125 4.5,4.546875 11,4.546875"
             id="use1241" />
        </g>
        <!-- 0.844 -->
        <g
           style="stroke-linecap:butt;stroke-linejoin:round"
           id="g1243"
           transform="matrix(0.1,0,0,-0.1,461.10588,469.15893)">
          <path
             style="stroke-linecap:butt;stroke-linejoin:round"
             d="m 31.78125,66.40625 q -7.609375,0 -11.453125,-7.5 Q 16.5,51.421875 16.5,36.375 q 0,-14.984375 3.828125,-22.484375 3.84375,-7.5 11.453125,-7.5 7.671875,0 11.5,7.5 3.84375,7.5 3.84375,22.484375 0,15.046875 -3.84375,22.53125 -3.828125,7.5 -11.5,7.5 m 0,7.8125 q 12.265625,0 18.734375,-9.703125 6.46875,-9.6875 6.46875,-28.140625 0,-18.40625 -6.46875,-28.109375 -6.46875,-9.6875 -18.734375,-9.6875 -12.25,0 -18.71875,9.6875 Q 6.59375,17.96875 6.59375,36.375 q 0,18.453125 6.46875,28.140625 6.46875,9.703125 18.71875,9.703125"
             id="use1245" />
          <path
             style="stroke-linecap:butt;stroke-linejoin:round"
             d="m 74.310547,12.40625 10.3125,0 0,-12.40625 -10.3125,0 z"
             id="use1247" />
          <path
             style="stroke-linecap:butt;stroke-linejoin:round"
             d="m 127.19141,34.625 q -7.03125,0 -11.0625,-3.765625 -4.01563,-3.765625 -4.01563,-10.34375 0,-6.59375 4.01563,-10.359375 4.03125,-3.765625 11.0625,-3.765625 7.03125,0 11.07812,3.78125 4.0625,3.796875 4.0625,10.34375 0,6.578125 -4.03125,10.34375 Q 134.28516,34.625 127.19141,34.625 m -9.85938,4.1875 q -6.34375,1.5625 -9.89062,5.90625 -3.53125,4.359375 -3.53125,10.609375 0,8.734375 6.21875,13.8125 6.23437,5.078125 17.0625,5.078125 10.89062,0 17.09375,-5.078125 6.20312,-5.078125 6.20312,-13.8125 0,-6.25 -3.54687,-10.609375 -3.53125,-4.34375 -9.82813,-5.90625 7.125,-1.65625 11.09375,-6.5 3.98438,-4.828125 3.98438,-11.796875 0,-10.609375 -6.46875,-16.28125 -6.46875,-5.65625 -18.53125,-5.65625 -12.04688,0 -18.53125,5.65625 -6.46875,5.671875 -6.46875,16.28125 0,6.96875 4,11.796875 4.01562,4.84375 11.14062,6.5 m -3.60937,15.578125 q 0,-5.65625 3.53125,-8.828125 3.54687,-3.171875 9.9375,-3.171875 6.35937,0 9.9375,3.171875 3.59375,3.171875 3.59375,8.828125 0,5.671875 -3.59375,8.84375 -3.57813,3.171875 -9.9375,3.171875 -6.39063,0 -9.9375,-3.171875 -3.53125,-3.171875 -3.53125,-8.84375"
             id="use1249" />
          <path
             style="stroke-linecap:butt;stroke-linejoin:round"
             d="m 196.83008,64.3125 -24.90625,-38.921875 24.90625,0 z m -2.59375,8.59375 12.40625,0 0,-47.515625 10.40625,0 0,-8.203125 -10.40625,0 0,-17.1875 -9.8125,0 0,17.1875 -32.90625,0 0,9.515625 z"
             id="use1251" />
          <path
             style="stroke-linecap:butt;stroke-linejoin:round"
             d="m 260.45312,64.3125 -24.90625,-38.921875 24.90625,0 z m -2.59375,8.59375 12.40625,0 0,-47.515625 10.40625,0 0,-8.203125 -10.40625,0 0,-17.1875 -9.8125,0 0,17.1875 -32.90625,0 0,9.515625 z"
             id="use1253" />
        </g>
        <!-- 0.017 -->
        <g
           style="stroke-linecap:butt;stroke-linejoin:round"
           id="g1255"
           transform="matrix(0.1,0,0,-0.1,461.10588,480.35675)">
          <path
             style="stroke-linecap:butt;stroke-linejoin:round"
             d="m 31.78125,66.40625 q -7.609375,0 -11.453125,-7.5 Q 16.5,51.421875 16.5,36.375 q 0,-14.984375 3.828125,-22.484375 3.84375,-7.5 11.453125,-7.5 7.671875,0 11.5,7.5 3.84375,7.5 3.84375,22.484375 0,15.046875 -3.84375,22.53125 -3.828125,7.5 -11.5,7.5 m 0,7.8125 q 12.265625,0 18.734375,-9.703125 6.46875,-9.6875 6.46875,-28.140625 0,-18.40625 -6.46875,-28.109375 -6.46875,-9.6875 -18.734375,-9.6875 -12.25,0 -18.71875,9.6875 Q 6.59375,17.96875 6.59375,36.375 q 0,18.453125 6.46875,28.140625 6.46875,9.703125 18.71875,9.703125"
             id="use1257" />
          <path
             style="stroke-linecap:butt;stroke-linejoin:round"
             d="m 74.310547,12.40625 10.3125,0 0,-12.40625 -10.3125,0 z"
             id="use1259" />
          <path
             style="stroke-linecap:butt;stroke-linejoin:round"
             d="m 127.19141,66.40625 q -7.60938,0 -11.45313,-7.5 -3.82812,-7.484375 -3.82812,-22.53125 0,-14.984375 3.82812,-22.484375 3.84375,-7.5 11.45313,-7.5 7.67187,0 11.5,7.5 3.84375,7.5 3.84375,22.484375 0,15.046875 -3.84375,22.53125 -3.82813,7.5 -11.5,7.5 m 0,7.8125 q 12.26562,0 18.73437,-9.703125 6.46875,-9.6875 6.46875,-28.140625 0,-18.40625 -6.46875,-28.109375 -6.46875,-9.6875 -18.73437,-9.6875 -12.25,0 -18.71875,9.6875 -6.46875,9.703125 -6.46875,28.109375 0,18.453125 6.46875,28.140625 6.46875,9.703125 18.71875,9.703125"
             id="use1261" />
          <path
             style="stroke-linecap:butt;stroke-linejoin:round"
             d="m 171.43945,8.296875 16.10938,0 0,55.625 -17.53125,-3.515625 0,8.984375 17.4375,3.515625 9.85937,0 0,-64.609375 16.10938,0 0,-8.296875 -41.98438,0 z"
             id="use1263" />
          <path
             style="stroke-linecap:butt;stroke-linejoin:round"
             d="m 230.85937,72.90625 46.875,0 0,-4.203125 L 251.26562,0 240.96875,0 265.875,64.59375 l -35.01563,0 z"
             id="use1265" />
        </g>
      </g>
    </g>
    <g
       style="stroke-linecap:butt;stroke-linejoin:round"
       id="axes_16">
      <g
         style="stroke-linecap:butt;stroke-linejoin:round"
         id="line2d_45">
        <path
           id="path1269"
           style="fill:none;stroke:#e68080;stroke-width:1.5;stroke-linecap:square;stroke-linejoin:round"
           d="m 497.69453,488.67009 9.27055,0.0443 9.27055,-0.10722 4.63527,-0.0503 4.63527,-0.15001 2.31764,0.18173 4.63527,0.49623 4.63528,0.2107 2.31763,-0.1264 2.31764,-0.48747 3.47646,-0.90842 2.31763,-0.18325 3.47646,0.20941 2.31763,0.25388 2.31764,0.58686 4.63527,1.65194 2.31764,0.2546 3.47645,0.0454 1.15882,-0.202 1.15882,-0.55389 1.15882,-1.02694 1.15882,-1.46671 1.15882,-1.65789 1.15882,-1.41473 1.15881,-0.68482 1.15882,0.38282 1.15882,1.44907 2.31764,4.05957 1.15882,1.01361 1.15881,-0.49268 1.15882,-1.94779 1.15882,-2.62612 1.15882,-1.9673 1.15882,0.14327 1.15881,3.22373 1.15882,6.26125 L 590.4,508.5 l 1.15882,4.06934 1.15882,-1.51557 1.15881,-7.97115 1.15882,-13.40544 2.31764,-30.56833 1.15882,-9.15219 1.15882,-0.91024 1.15882,8.03277 1.15881,15.26747 2.31764,36.60108 1.15882,12.51956 1.15882,4.6153 1.15882,-3.71173 1.15881,-10.27419 2.31764,-26.73018 1.15882,-9.71615 1.15882,-4.66033 1.15881,0.33972 1.15882,3.92517 2.31764,10.33322 1.15882,3.12739 1.15882,1.01582 1.15881,-0.57259 1.15882,-1.17911 1.15882,-0.81627 1.15882,0.13329 1.15882,1.13425 2.31763,3.44429 1.15882,1.13704 1.15882,0.27063 1.15882,-0.56124 1.15882,-1.10742 2.31764,-2.38429 1.15881,-0.79036 1.15882,-0.47085 2.31764,-0.44695 3.47645,-0.49346 1.15882,0.003 1.15882,0.16472 2.31764,0.68078 2.31763,0.67746 2.31764,0.4026 5.79409,0.69244 2.31764,-0.18296 5.79409,-1.09148 3.47646,-0.15689 3.47645,0.0505 9.27055,0.55971 6.95291,-0.0446 5.79409,-0.21361 8.11173,0.10621 0,0"
           clip-path="url(#p4e8e04ec36)" />
      </g>
      <g
         style="stroke-linecap:butt;stroke-linejoin:round"
         id="line2d_46">
        <path
           id="path1272"
           style="fill:none;stroke:#aaaba9;stroke-width:1.5;stroke-linecap:square;stroke-linejoin:round"
           d="m 471.04171,489.56877 1.15882,-0.0449 1.15882,-0.1769 2.31763,-0.68133 2.31764,-0.81665 1.15882,-0.30915 1.15882,-0.1702 1.15882,0.002 1.15881,0.18267 1.15882,0.34474 4.63528,1.91021 1.15881,0.27414 1.15882,0.0888 1.15882,-0.10917 1.15882,-0.29109 2.31764,-0.94184 2.31763,-0.98679 1.15882,-0.35343 1.15882,-0.20242 1.15882,-0.0316 1.15882,0.13929 1.15882,0.29166 2.31763,0.88106 2.31764,0.88747 1.15882,0.28925 1.15881,0.12698 1.15882,-0.0455 2.31764,-0.48787 2.31764,-0.62223 2.31763,-0.37212 8.11173,-0.47097 2.31764,0.14898 2.31763,0.48925 3.47646,1.14156 2.31764,0.67955 1.15882,0.14487 1.15881,-0.0736 1.15882,-0.32734 1.15882,-0.56441 3.47646,-2.15359 1.15881,-0.4605 1.15882,-0.20978 1.15882,0.0157 2.31764,0.38701 3.47645,0.71999 1.15882,0.38829 1.15882,0.54385 3.47645,2.0506 1.15882,0.46677 1.15882,0.23413 1.15882,0.0183 1.15882,-0.14275 1.15881,-0.26566 1.15882,-0.41369 1.15882,-0.65484 1.15882,-1.0039 1.15882,-1.38091 2.31764,-3.12925 1.15881,-0.95134 1.15882,0.0165 1.15882,1.12667 2.31764,4.07445 1.15882,1.35417 1.15881,-0.16713 1.15882,-1.9198 2.31764,-6.09676 1.15882,-1.13095 1.15881,2.21415 1.15882,6.1362 3.47646,27.1646 1.15882,2.35937 1.15881,-5.13571 1.15882,-12.69029 3.47646,-52.64816 1.15882,-7.39413 1.15882,3.03104 1.15881,13.09564 1.15882,20.09957 1.15882,22.19299 1.15882,18.93178 1.15882,11.38446 1.15882,1.76256 1.15881,-7.29161 1.15882,-13.51391 1.15882,-15.6564 1.15882,-13.75794 1.15882,-8.98819 1.15881,-3.15331 1.15882,1.94095 1.15882,5.04367 1.15882,5.75675 1.15882,4.51053 1.15882,2.27002 1.15881,0.11111 2.31764,-2.43181 1.15882,-0.38879 1.15882,0.9218 1.15882,2.05622 2.31763,4.88061 1.15882,1.43041 1.15882,0.25851 1.15882,-0.83737 1.15882,-1.58807 2.31763,-3.6754 1.15882,-1.42921 1.15882,-0.9758 1.15882,-0.54912 1.15882,-0.20936 1.15881,0.0349 2.31764,0.50496 4.63527,1.32637 3.47646,0.79996 2.31764,0.81566 2.31763,0.81255 1.15882,0.20449 1.15882,-0.0178 1.15882,-0.25516 1.15882,-0.46052 4.63527,-2.34158 1.15882,-0.30659 1.15882,-0.0829 1.15882,0.15307 1.15881,0.36423 3.47646,1.52853 1.15882,0.28519 1.15881,0.0421 1.15882,-0.18827 3.47646,-0.92871 1.15882,-0.0455 1.15881,0.15603 3.47646,0.74033 1.15882,-0.0296 1.15882,-0.22477 2.31763,-0.67045 1.15882,-0.19914 1.15882,0.003 1.15882,0.19851 3.47645,0.84886 1.15882,0.0393 2.31764,-0.37381 2.31763,-0.45 1.15882,-0.0671 2.31764,0.20977 1.15882,0.17815 0,0"
           clip-path="url(#p4e8e04ec36)" />
      </g>
      <g
         style="stroke-linecap:butt;stroke-linejoin:round"
         id="line2d_47">
        <path
           id="path1275"
           style="fill:none;stroke:#cc0000;stroke-width:1.5;stroke-linecap:square;stroke-linejoin:round"
           d="m 497.44211,488.66823 23.17636,-0.0655 5.7941,-0.1959 2.31763,0.18173 4.63528,0.49623 4.63527,0.2107 2.31764,-0.1264 2.31763,-0.48747 3.47646,-0.90842 2.31763,-0.18325 3.47646,0.20941 2.31764,0.25388 2.31763,0.58686 4.63528,1.65194 2.31763,0.2546 3.47646,0.0454 1.15882,-0.202 1.15881,-0.55389 1.15882,-1.02694 1.15882,-1.46671 1.15882,-1.65789 1.15882,-1.41473 1.15882,-0.68482 1.15881,0.38282 1.15882,1.44907 2.31764,4.05957 1.15882,1.01361 1.15882,-0.49268 1.15881,-1.94779 1.15882,-2.62612 1.15882,-1.9673 1.15882,0.14327 1.15882,3.22373 1.15882,6.26125 2.31763,15.41552 1.15882,4.06934 1.15882,-1.51557 1.15882,-7.97115 1.15882,-13.40544 2.31763,-30.56833 1.15882,-9.15219 1.15882,-0.91024 1.15882,8.03277 1.15882,15.26747 2.31763,36.60108 1.15882,12.51956 1.15882,4.6153 1.15882,-3.71173 1.15882,-10.27419 2.31763,-26.73018 1.15882,-9.71615 1.15882,-4.66033 1.15882,0.33972 1.15882,3.92517 2.31763,10.33322 1.15882,3.12739 1.15882,1.01582 1.15882,-0.57259 1.15882,-1.17911 1.15881,-0.81627 1.15882,0.13329 1.15882,1.13425 2.31764,3.44429 1.15882,1.13704 1.15882,0.27063 1.15881,-0.56124 1.15882,-1.10742 2.31764,-2.38429 1.15882,-0.79036 1.15881,-0.47085 2.31764,-0.44695 3.47646,-0.49346 1.15881,0.003 1.15882,0.16472 2.31764,0.68078 2.31764,0.67746 2.31763,0.4026 5.7941,0.69159 1.15881,-0.0465 2.31764,-0.4051 2.31764,-0.48847 2.31763,-0.24564 3.47646,-0.006 11.58818,0.21178 0,0"
           clip-path="url(#p4e8e04ec36)" />
      </g>
      <g
         style="stroke-linecap:butt;stroke-linejoin:round"
         id="line2d_48">
        <path
           id="path1278"
           style="fill:none;stroke:#555753;stroke-width:1.5;stroke-linecap:square;stroke-linejoin:round"
           d="m 497.44211,488.66823 3.47645,-0.0752 3.47646,-0.12704 2.31763,0.16761 5.7941,0.87643 1.15881,-0.0772 2.31764,-0.45308 2.31764,-0.48589 2.31763,-0.23166 8.11173,-0.35802 2.31764,0.32334 2.31764,0.62994 4.63527,1.47484 1.15882,0.14487 1.15882,-0.0736 1.15881,-0.32734 1.15882,-0.56441 3.47646,-2.15359 1.15882,-0.4605 1.15881,-0.20978 1.15882,0.0157 2.31764,0.38701 3.47645,0.71999 1.15882,0.38829 1.15882,0.54385 3.47646,2.0506 1.15881,0.46677 1.15882,0.23413 1.15882,0.0183 1.15882,-0.14275 1.15882,-0.26566 1.15882,-0.41369 1.15881,-0.65484 1.15882,-1.0039 1.15882,-1.38091 2.31764,-3.12925 1.15882,-0.95134 1.15881,0.0165 1.15882,1.12667 2.31764,4.07445 1.15882,1.35417 1.15882,-0.16713 1.15881,-1.9198 2.31764,-6.09676 1.15882,-1.13095 1.15882,2.21415 1.15882,6.1362 3.47645,27.1646 1.15882,2.35937 1.15882,-5.13571 1.15882,-12.69029 3.47645,-52.64816 1.15882,-7.39413 1.15882,3.03104 1.15882,13.09564 1.15882,20.09957 1.15881,22.19299 1.15882,18.93178 1.15882,11.38446 1.15882,1.76256 1.15882,-7.29161 1.15881,-13.51391 1.15882,-15.6564 1.15882,-13.75794 1.15882,-8.98819 1.15882,-3.15331 1.15882,1.94095 1.15881,5.04367 1.15882,5.75675 1.15882,4.51053 1.15882,2.27002 1.15882,0.11111 2.31763,-2.43181 1.15882,-0.38879 1.15882,0.9218 1.15882,2.05622 2.31764,4.88061 1.15882,1.43041 1.15881,0.25851 1.15882,-0.83737 1.15882,-1.58807 2.31764,-3.6754 1.15881,-1.42921 1.15882,-0.9758 1.15882,-0.54912 1.15882,-0.20936 1.15882,0.0349 2.31763,0.50496 4.63528,1.32637 3.47645,0.79996 2.31764,0.81566 2.31764,0.81255 1.15882,0.20284 1.15881,-0.038 1.15882,-0.28917 2.31764,-1.06637 2.31764,-1.03206 1.15881,-0.29463 1.15882,-0.10461 1.15882,0.0692 5.79409,0.94821 3.47646,-0.0615 3.47645,-0.0258 0,0"
           clip-path="url(#p4e8e04ec36)" />
      </g>
      <g
         style="stroke-linecap:butt;stroke-linejoin:round"
         id="patch_32">
        <path
           id="path1281"
           style="fill:#e0be88;stroke:#c17d11;stroke-linecap:butt;stroke-linejoin:miter"
           d="m 695.68306,443.17482 26.01106,0 0,-11.74023 -26.01106,0 z" />
      </g>
      <g
         style="stroke-linecap:butt;stroke-linejoin:round"
         id="patch_33">
        <path
           id="path1284"
           style="fill:#e68080;stroke:#cc0000;stroke-linecap:butt;stroke-linejoin:miter"
           d="m 698.12829,457.85012 23.56583,0 0,-11.74024 -23.56583,0 z" />
      </g>
    </g>
  </g>
  <defs
     id="defs1332">
    <clipPath
       style="stroke-linecap:butt;stroke-linejoin:round"
       id="pc25d6ebac5">
      <rect
         style="stroke-linecap:butt;stroke-linejoin:round"
         id="rect1335"
         y="77.760002"
         x="144"
         width="262.58823"
         height="146.75294" />
    </clipPath>
    <clipPath
       style="stroke-linecap:butt;stroke-linejoin:round"
       id="p80e2a04156">
      <rect
         style="stroke-linecap:butt;stroke-linejoin:round"
         id="rect1338"
         y="77.760002"
         x="459.1059"
         width="262.58823"
         height="146.75294" />
    </clipPath>
    <clipPath
       style="stroke-linecap:butt;stroke-linejoin:round"
       id="pf1aea9cd10">
      <rect
         style="stroke-linecap:butt;stroke-linejoin:round"
         id="rect1341"
         y="77.760002"
         x="774.21179"
         width="262.58823"
         height="146.75294" />
    </clipPath>
    <clipPath
       style="stroke-linecap:butt;stroke-linejoin:round"
       id="p8fce1841db">
      <rect
         style="stroke-linecap:butt;stroke-linejoin:round"
         id="rect1344"
         y="253.86353"
         x="144"
         width="262.58823"
         height="146.75294" />
    </clipPath>
    <clipPath
       style="stroke-linecap:butt;stroke-linejoin:round"
       id="pd12488a39e">
      <rect
         style="stroke-linecap:butt;stroke-linejoin:round"
         id="rect1347"
         y="253.86353"
         x="459.1059"
         width="262.58823"
         height="146.75294" />
    </clipPath>
    <clipPath
       style="stroke-linecap:butt;stroke-linejoin:round"
       id="p00772f5b5e">
      <rect
         style="stroke-linecap:butt;stroke-linejoin:round"
         id="rect1350"
         y="253.86353"
         x="774.21179"
         width="262.58823"
         height="146.75294" />
    </clipPath>
    <clipPath
       style="stroke-linecap:butt;stroke-linejoin:round"
       id="p1ac8f2a7ae">
      <rect
         style="stroke-linecap:butt;stroke-linejoin:round"
         id="rect1353"
         y="429.96707"
         x="144"
         width="262.58823"
         height="146.75294" />
    </clipPath>
    <clipPath
       style="stroke-linecap:butt;stroke-linejoin:round"
       id="p4e8e04ec36">
      <rect
         style="stroke-linecap:butt;stroke-linejoin:round"
         id="rect1356"
         y="429.96707"
         x="459.1059"
         width="262.58823"
         height="146.75294" />
    </clipPath>
  </defs>
</svg>
