<?xml version="1.0" encoding="UTF-8" standalone="no"?>
<!-- Created with Inkscape (http://www.inkscape.org/) -->

<svg
   xmlns:dc="http://purl.org/dc/elements/1.1/"
   xmlns:cc="http://creativecommons.org/ns#"
   xmlns:rdf="http://www.w3.org/1999/02/22-rdf-syntax-ns#"
   xmlns:svg="http://www.w3.org/2000/svg"
   xmlns="http://www.w3.org/2000/svg"
   xmlns:sodipodi="http://sodipodi.sourceforge.net/DTD/sodipodi-0.dtd"
   xmlns:inkscape="http://www.inkscape.org/namespaces/inkscape"
   width="25.400637mm"
   height="25.412958mm"
   viewBox="0 0 90.002256 90.045914"
   id="svg4490"
   version="1.1"
   inkscape:version="0.91 r13725"
   sodipodi:docname="grond_mt.svg">
  <defs
     id="defs4492">
    <clipPath
       id="p8909232319">
      <rect
         height="266.112"
         width="357.12"
         x="57.599998"
         y="41.472"
         id="rect271" />
    </clipPath>
    <clipPath
       id="clipPath4413">
      <rect
         height="266.112"
         width="357.12"
         x="57.599998"
         y="41.472"
         id="rect4415" />
    </clipPath>
    <clipPath
       id="clipPath4417">
      <rect
         height="266.112"
         width="357.12"
         x="57.599998"
         y="41.472"
         id="rect4419" />
    </clipPath>
    <clipPath
       id="clipPath4421">
      <rect
         height="266.112"
         width="357.12"
         x="57.599998"
         y="41.472"
         id="rect4423" />
    </clipPath>
    <clipPath
       id="clipPath4425">
      <rect
         height="266.112"
         width="357.12"
         x="57.599998"
         y="41.472"
         id="rect4427" />
    </clipPath>
    <clipPath
       id="clipPath4429">
      <rect
         height="266.112"
         width="357.12"
         x="57.599998"
         y="41.472"
         id="rect4431" />
    </clipPath>
    <clipPath
       id="clipPath4433">
      <rect
         height="266.112"
         width="357.12"
         x="57.599998"
         y="41.472"
         id="rect4435" />
    </clipPath>
    <clipPath
       id="clipPath4437">
      <rect
         height="266.112"
         width="357.12"
         x="57.599998"
         y="41.472"
         id="rect4439" />
    </clipPath>
    <clipPath
       id="clipPath4441">
      <rect
         height="266.112"
         width="357.12"
         x="57.599998"
         y="41.472"
         id="rect4443" />
    </clipPath>
    <clipPath
       id="clipPath4445">
      <rect
         height="266.112"
         width="357.12"
         x="57.599998"
         y="41.472"
         id="rect4447" />
    </clipPath>
    <clipPath
       id="clipPath4449">
      <rect
         height="266.112"
         width="357.12"
         x="57.599998"
         y="41.472"
         id="rect4451" />
    </clipPath>
    <clipPath
       id="clipPath4453">
      <rect
         height="266.112"
         width="357.12"
         x="57.599998"
         y="41.472"
         id="rect4455" />
    </clipPath>
    <clipPath
       id="clipPath4457">
      <rect
         height="266.112"
         width="357.12"
         x="57.599998"
         y="41.472"
         id="rect4459" />
    </clipPath>
    <clipPath
       id="clipPath4461">
      <rect
         height="266.112"
         width="357.12"
         x="57.599998"
         y="41.472"
         id="rect4463" />
    </clipPath>
    <clipPath
       id="clipPath4465">
      <rect
         height="266.112"
         width="357.12"
         x="57.599998"
         y="41.472"
         id="rect4467" />
    </clipPath>
    <clipPath
       id="clipPath4469">
      <rect
         height="266.112"
         width="357.12"
         x="57.599998"
         y="41.472"
         id="rect4471" />
    </clipPath>
  </defs>
  <sodipodi:namedview
     id="base"
     pagecolor="#ffffff"
     bordercolor="#666666"
     borderopacity="1.0"
     inkscape:pageopacity="0.0"
     inkscape:pageshadow="2"
     inkscape:zoom="0.35"
     inkscape:cx="-519.99888"
     inkscape:cy="-6.4056136"
     inkscape:document-units="px"
     inkscape:current-layer="layer1"
     showgrid="false"
     fit-margin-top="0"
     fit-margin-left="0"
     fit-margin-right="0"
     fit-margin-bottom="0"
     inkscape:window-width="1918"
     inkscape:window-height="1124"
     inkscape:window-x="0"
     inkscape:window-y="24"
     inkscape:window-maximized="1" />
  <metadata
     id="metadata4495">
    <rdf:RDF>
      <cc:Work
         rdf:about="">
        <dc:format>image/svg+xml</dc:format>
        <dc:type
           rdf:resource="http://purl.org/dc/dcmitype/StillImage" />
        <dc:title></dc:title>
      </cc:Work>
    </rdf:RDF>
  </metadata>
  <g
     inkscape:label="Layer 1"
     inkscape:groupmode="layer"
     id="layer1"
     transform="translate(-360.71317,-435.91068)">
    <g
       transform="matrix(1.25,0,0,1.25,110.51431,262.75023)"
       id="PathCollection_1">
      <path
         inkscape:connector-curvature="0"
         clip-path="url(#p8909232319)"
         d="m 209.2406,152.26692 0.47109,0.0959 0.47137,0.10394 0.47218,0.11191 0,0 -0.30039,0.48358 -0.2918,0.48764 -0.28321,0.49156 -0.27459,0.49533 -0.26594,0.49896 -0.2573,0.50244 -0.24862,0.50579 -0.23994,0.50898 -0.23125,0.51204 -0.22255,0.51496 -0.21384,0.51774 -0.20512,0.52039 -0.19642,0.52289 -0.18769,0.52526 -0.17898,0.5275 -0.17026,0.5296 -0.16155,0.53157 -0.15283,0.53341 -0.14414,0.53511 -0.13544,0.53669 -0.12675,0.53813 -0.11808,0.53945 -0.10942,0.54064 -0.10076,0.5417 -0.0921,0.54264 -0.0835,0.54346 -0.0749,0.54414 -0.0663,0.5447 -0.0577,0.54515 -0.0492,0.54547 -0.0407,0.54567 -0.0322,0.54575 -0.0237,0.54571 -0.0152,0.54556 -0.007,0.54528 0.002,0.5449 0.01,0.54438 0.0183,0.54377 0.0266,0.54303 0.0349,0.54219 0.0432,0.54122 0.0514,0.54015 0.0596,0.53897 0.0677,0.53767 0.0759,0.53627 0.041,0.26758 -0.32701,0.0976 -0.32454,0.0984 -0.32204,0.0993 -0.3195,0.10012 -0.31694,0.10099 -0.31434,0.10187 -0.31173,0.10277 -0.30907,0.1037 -0.30639,0.10463 -0.30368,0.10559 -0.30095,0.10657 -0.29817,0.10757 -0.29537,0.10859 -0.29254,0.10964 -0.0355,0.0134 -0.0574,-0.60115 -0.047,-0.60206 -0.0366,-0.60277 -0.0262,-0.60332 -0.0158,-0.60368 -0.005,-0.60387 0.005,-0.60386 0.0155,-0.60369 0.0259,-0.60334 0.0363,-0.60279 0.0467,-0.60208 0.0571,-0.60119 0.0674,-0.60011 0.0778,-0.59886 0.0881,-0.59743 0.0984,-0.59582 0.10865,-0.59403 0.11887,-0.59208 0.12908,-0.58993 0.13924,-0.58761 0.14935,-0.58513 0.15942,-0.58247 0.16945,-0.57962 0.17943,-0.57662 0.18935,-0.57343 0.19921,-0.57008 0.20902,-0.56657 0.21877,-0.56286 0.22844,-0.55902 0.23805,-0.55498 0.2476,-0.5508 0.25706,-0.54644 0.26644,-0.54193 0.27576,-0.53725 0.28499,-0.53241 0.29413,-0.52742 0.30319,-0.52226 0.31215,-0.51695 0.32103,-0.51149 0.3298,-0.50588 0.33848,-0.50011 0.34706,-0.4942 0.35554,-0.48813 0.3639,-0.48193 0.37216,-0.47558 0.38032,-0.46908 0.0766,0.0148"
         style="fill:#ffffff;stroke:#ffffff;stroke-width:2"
         id="path17" />
      <path
         inkscape:connector-curvature="0"
         clip-path="url(#p8909232319)"
         d="m 201.38391,178.14097 0.29254,-0.10964 0.29537,-0.10859 0.29817,-0.10757 0.30095,-0.10657 0.30368,-0.10559 0.30639,-0.10463 0.30907,-0.1037 0.31173,-0.10277 0.31434,-0.10187 0.31694,-0.10099 0.3195,-0.10012 0.32204,-0.0993 0.32454,-0.0984 0.32701,-0.0976 0.043,0.26718 0.092,0.53314 0.1,0.5314 0.10794,0.52958 0.11587,0.52763 0.12375,0.52559 0.1316,0.52343 0.1394,0.52118 0.14715,0.51882 0.15487,0.51636 0.16253,0.5138 0.17016,0.51113 0.17774,0.50837 0.18526,0.50549 0.19275,0.50254 0.20018,0.49947 0.20756,0.4963 0.21489,0.49304 0.22217,0.48969 0.2294,0.48623 0.23658,0.48268 0.2437,0.47903 0.25076,0.47529 0.25778,0.47145 0.26474,0.46752 0.27163,0.4635 0.27848,0.45938 0.28527,0.45518 0.29198,0.45087 0.29866,0.44648 0.30526,0.442 0.3118,0.43743 0.31829,0.43276 0.3247,0.42802 0.33106,0.42317 0.33735,0.41825 0.34358,0.41323 0.34973,0.40812 0.35583,0.40294 0.36185,0.39766 0.36781,0.39231 0.37369,0.38685 0.37951,0.38132 0.38526,0.37571 0.39093,0.37001 0.39652,0.36423 -0.35427,0.33463 -0.35278,0.33046 -0.35167,0.32657 -0.35093,0.32295 -0.35059,0.31957 -0.3506,0.31641 -0.351,0.31345 -0.35176,0.31064 -0.35288,0.30797 -0.35436,0.30541 -0.18243,0.15562 -0.45728,-0.39671 -0.45035,-0.40456 -0.44329,-0.41229 -0.43609,-0.41989 -0.42877,-0.42737 -0.42131,-0.43473 -0.41372,-0.44195 -0.40602,-0.44903 -0.39819,-0.45599 -0.39025,-0.46282 -0.38218,-0.46949 -0.37401,-0.47603 -0.36571,-0.48243 -0.35732,-0.48868 -0.34881,-0.49479 -0.34021,-0.50075 -0.33149,-0.50655 -0.32267,-0.51222 -0.31378,-0.51772 -0.30477,-0.52307 -0.29567,-0.52826 -0.2865,-0.53329 -0.27723,-0.53818 -0.26788,-0.54288 -0.25845,-0.54744 -0.24894,-0.55183 -0.23936,-0.55605 -0.22971,-0.56011 -0.21999,-0.56399 -0.2102,-0.56772 -0.20035,-0.57127 -0.19043,-0.57464 -0.18047,-0.57786 -0.17045,-0.58089 -0.16038,-0.58375 -0.15025,-0.58644 -0.14009,-0.58895 -0.12988,-0.59128 -0.11964,-0.59344 -0.10935,-0.59543 -0.099,-0.59722 -0.0887,-0.59885 -0.0783,-0.60029 -0.0679,-0.60156 0.0355,-0.0134"
         style="fill:#ffffff;stroke:#ffffff;stroke-width:2"
         id="path19" />
      <path
         inkscape:connector-curvature="0"
         clip-path="url(#p8909232319)"
         d="m 270.73597,170.85634 -0.3105,-0.0459 -0.31304,-0.0443 -0.31556,-0.0427 -0.31805,-0.0412 -0.3205,-0.0397 -0.32295,-0.0382 -0.32536,-0.0368 -0.32775,-0.0353 -0.33011,-0.0339 -0.33244,-0.0325 -0.33476,-0.0311 -0.33705,-0.0298 -0.3393,-0.0285 -0.34154,-0.0272 -0.34375,-0.0259 -0.34593,-0.0246 -0.34809,-0.0233 -0.35022,-0.0221 -0.35231,-0.0209 -0.3544,-0.0197 -0.35645,-0.0185 -0.35846,-0.0173 -0.36047,-0.0161 -0.36243,-0.0149 -0.36437,-0.0138 -0.36628,-0.0127 -0.36817,-0.0115 -0.37003,-0.0104 -0.37186,-0.009 -0.37366,-0.008 -0.37544,-0.007 -0.37718,-0.006 -0.3789,-0.005 -0.38059,-0.004 -0.38225,-0.003 -0.38388,-0.002 -0.38548,-9.3e-4 -0.38706,7e-5 -0.3886,0.001 -0.39012,0.002 -0.3916,0.003 -0.39306,0.004 -0.39449,0.005 -0.39589,0.006 -0.39725,0.007 -0.39859,0.008 -0.39991,0.009 -0.40118,0.01 -0.40243,0.0107 -0.40364,0.0116 -0.40484,0.0125 -0.40599,0.0134 -0.40712,0.0143 -0.40821,0.0152 -0.40929,0.0161 -0.41031,0.017 -0.41133,0.0179 -0.41229,0.0187 -0.41324,0.0196 -0.41415,0.0204 -0.41503,0.0213 -0.41588,0.0222 -0.41669,0.023 -0.41749,0.0238 -0.41823,0.0247 -0.41897,0.0255 -0.41965,0.0263 -0.42032,0.0272 -0.42094,0.028 -0.42154,0.0288 0.056,-0.87578 0.28904,-0.88947 0.44335,-0.89545 0.53203,-0.89437 0.5793,-0.88796 0.6021,-0.87766 0.61025,-0.86439 0.60927,-0.84883 0.60238,-0.83144 0.59151,-0.81263 0.57797,-0.79274 0.56259,-0.77209 0.54603,-0.75092 0.52871,-0.7295 0.51101,-0.708 0.49317,-0.68663 0.47541,-0.66555 0.45789,-0.64485 0.44073,-0.62467 0.42401,-0.60509 0.40783,-0.58616 0.3922,-0.56794 0.37717,-0.55046 0.36275,-0.53376 0.34896,-0.51781 0.33579,-0.50266 0.32322,-0.48828 0.31125,-0.47466 0.29986,-0.4618 0.28901,-0.44967 0.27871,-0.43825 0.2689,-0.42752 0.25958,-0.41748 0.2507,-0.40807 0.10068,-0.16525 0.45697,0.39656 0.45004,0.4044 0.44298,0.41211 0.43579,0.41972 0.42847,0.42718 0.42103,0.43453 0.41345,0.44174 0.40575,0.44882 0.39793,0.45576 0.39,0.46258 0.38194,0.46925 0.37377,0.47579 0.36549,0.48217 0.3571,0.48842 0.34861,0.49452 0.34,0.50047 0.33131,0.50627 0.3225,0.51193 0.3136,0.51742 0.30462,0.52277 0.29553,0.52795 0.28636,0.53298 0.2771,0.53786 0.26777,0.54256 0.25834,0.54712 0.24886,0.55149 0.23928,0.55572 0.22963,0.55976 0.21993,0.56366 0.21015,0.56737 0.20031,0.57092 0.19042,0.5743 0.18045,0.5775 0.17045,0.58054 0.16039,0.58339 0.15028,0.58608 0.14012,0.5886 0.12993,0.59092 0.11969,0.59309 0.10943,0.59506 0.0991,0.59687 0.0888,0.59849 0.0784,0.59993 0.0681,0.6012 -0.23469,-0.036"
         style="fill:#ffffff;stroke:#ffffff;stroke-width:2"
         id="path21" />
      <path
         inkscape:connector-curvature="0"
         clip-path="url(#p8909232319)"
         d="m 205.68523,176.42609 -0.0759,-0.53627 -0.0677,-0.53767 -0.0596,-0.53897 -0.0514,-0.54015 -0.0432,-0.54122 -0.0349,-0.54219 -0.0266,-0.54303 -0.0183,-0.54377 -0.01,-0.54438 -0.002,-0.5449 0.007,-0.54528 0.0152,-0.54556 0.0237,-0.54571 0.0322,-0.54575 0.0407,-0.54567 0.0492,-0.54547 0.0577,-0.54515 0.0663,-0.5447 0.0749,-0.54414 0.0835,-0.54346 0.0921,-0.54264 0.10076,-0.5417 0.10942,-0.54064 0.11808,-0.53945 0.12675,-0.53813 0.13544,-0.53669 0.14414,-0.53511 0.15283,-0.53341 0.16155,-0.53157 0.17026,-0.5296 0.17898,-0.5275 0.18769,-0.52526 0.19642,-0.52289 0.20512,-0.52039 0.21384,-0.51774 0.22255,-0.51496 0.23125,-0.51204 0.23994,-0.50898 0.24862,-0.50579 0.2573,-0.50244 0.26594,-0.49896 0.27459,-0.49533 0.28321,-0.49156 0.2918,-0.48764 0.30039,-0.48358 0.47355,0.11979 0.47548,0.12767 0.47797,0.13557 0.48101,0.14354 0.48465,0.15161 0.48885,0.15985 0.49365,0.16826 0.49905,0.1769 0.50506,0.1858 0.51169,0.19502 0.51895,0.20456 0.52685,0.21448 0.53541,0.22483 0.54464,0.23563 0.55452,0.24692 0.5651,0.25873 0.57636,0.27113 0.58828,0.28411 0.6009,0.29775 0.61417,0.31205 0.6281,0.32705 0.64264,0.3428 0.65776,0.35928 0.67343,0.37655 0.68954,0.39458 0.70605,0.4134 0.72284,0.43298 0.73976,0.4533 0.75669,0.47432 0.7734,0.496 0.78968,0.51825 0.80525,0.54097 0.81976,0.56406 0.8328,0.58739 0.84383,0.61081 0.85219,0.63414 0.85695,0.65723 0.8568,0.67994 0.84976,0.70213 0.83261,0.72381 0.79986,0.7451 0.74173,0.76648 0.64129,0.78896 0.47448,0.81393 0.22823,0.84174 0,0 -0.42635,0.0387 -0.42651,0.0394 -0.42664,0.0402 -0.42673,0.0409 -0.4268,0.0417 -0.42683,0.0424 -0.42684,0.0431 -0.42679,0.0439 -0.42674,0.0446 -0.42664,0.0453 -0.42651,0.0461 -0.42635,0.0468 -0.42615,0.0475 -0.42593,0.0482 -0.42567,0.0489 -0.42538,0.0496 -0.42505,0.0503 -0.4247,0.051 -0.42432,0.0517 -0.42389,0.0524 -0.42345,0.0531 -0.42296,0.0538 -0.42244,0.0545 -0.42189,0.0552 -0.42132,0.0559 -0.4207,0.0566 -0.42006,0.0572 -0.41938,0.0579 -0.41867,0.0586 -0.41793,0.0592 -0.41716,0.0599 -0.41636,0.0606 -0.41551,0.0613 -0.41465,0.0619 -0.41375,0.0626 -0.41282,0.0632 -0.41186,0.0639 -0.41086,0.0646 -0.40983,0.0652 -0.40878,0.0659 -0.40768,0.0665 -0.40656,0.0672 -0.40542,0.0678 -0.40422,0.0685 -0.40302,0.0691 -0.40176,0.0698 -0.40049,0.0704 -0.39918,0.0711 -0.39784,0.0717 -0.39647,0.0724 -0.39507,0.073 -0.39363,0.0737 -0.39217,0.0743 -0.39068,0.075 -0.38916,0.0756 -0.38759,0.0763 -0.38601,0.0769 -0.3844,0.0776 -0.38275,0.0782 -0.38107,0.0789 -0.37936,0.0796 -0.37763,0.0802 -0.37586,0.0809 -0.37406,0.0816 -0.37223,0.0822 -0.37038,0.0829 -0.36848,0.0836 -0.36657,0.0843 -0.36463,0.0849 -0.36264,0.0856 -0.36064,0.0863 -0.35861,0.087 -0.35653,0.0877 -0.35444,0.0884 -0.35232,0.0892 -0.35017,0.0899 -0.34797,0.0906 -0.34577,0.0914 -0.34353,0.0921 -0.34125,0.0929 -0.33896,0.0936 -0.33662,0.0944 -0.33427,0.0952 -0.33188,0.096 -0.32946,0.0968 -0.041,-0.26758"
         style="fill:#ffffff;stroke:#ffffff;stroke-width:2"
         id="path23" />
      <path
         inkscape:connector-curvature="0"
         clip-path="url(#p8909232319)"
         d="m 263.03093,196.45257 -0.19006,-0.44819 -0.19943,-0.45095 -0.20901,-0.45428 -0.21885,-0.45818 -0.229,-0.46266 -0.2395,-0.46775 -0.25037,-0.4734 -0.2617,-0.47967 -0.27347,-0.48654 -0.28578,-0.49402 -0.29863,-0.50213 -0.31207,-0.51084 -0.32615,-0.52019 -0.34089,-0.53016 -0.35634,-0.54075 -0.37251,-0.55196 -0.38945,-0.56376 -0.40716,-0.57616 -0.42567,-0.5891 -0.44495,-0.60257 -0.46503,-0.61651 -0.48586,-0.63088 -0.50739,-0.64558 -0.52958,-0.66057 -0.5523,-0.67571 -0.57544,-0.69092 -0.59883,-0.70603 -0.62223,-0.72092 -0.64537,-0.73542 -0.66787,-0.74936 -0.68922,-0.76256 -0.70877,-0.77485 -0.72561,-0.78604 -0.7384,-0.79602 -0.74514,-0.80473 -0.74253,-0.8122 -0.72497,-0.8187 -0.68258,-0.82493 -0.59818,-0.83221 -0.44728,-0.84273 -0.21623,-0.85808 0,0 0.42154,-0.0288 0.42094,-0.028 0.42032,-0.0272 0.41965,-0.0263 0.41897,-0.0255 0.41823,-0.0247 0.41749,-0.0238 0.41669,-0.023 0.41588,-0.0222 0.41503,-0.0213 0.41415,-0.0204 0.41324,-0.0196 0.41229,-0.0187 0.41133,-0.0179 0.41031,-0.017 0.40929,-0.0161 0.40821,-0.0152 0.40712,-0.0143 0.40599,-0.0134 0.40484,-0.0125 0.40364,-0.0116 0.40243,-0.0107 0.40118,-0.01 0.39991,-0.009 0.39859,-0.008 0.39725,-0.007 0.39589,-0.006 0.39449,-0.005 0.39306,-0.004 0.3916,-0.003 0.39012,-0.002 0.3886,-10e-4 0.38706,-7e-5 0.38548,9.3e-4 0.38388,0.002 0.38225,0.003 0.38059,0.004 0.3789,0.005 0.37718,0.006 0.37544,0.007 0.37366,0.008 0.37186,0.009 0.37003,0.0104 0.36817,0.0115 0.36628,0.0127 0.36437,0.0138 0.36243,0.0149 0.36047,0.0161 0.35846,0.0173 0.35645,0.0185 0.3544,0.0197 0.35231,0.0209 0.35022,0.0221 0.34809,0.0233 0.34593,0.0246 0.34375,0.0259 0.34154,0.0272 0.3393,0.0285 0.33705,0.0298 0.33476,0.0311 0.33244,0.0325 0.33011,0.0339 0.32775,0.0353 0.32536,0.0368 0.32295,0.0382 0.3205,0.0397 0.31805,0.0412 0.31556,0.0427 0.31304,0.0443 0.3105,0.0459 0.23469,0.036 0.0575,0.60093 0.0471,0.60183 0.0368,0.60255 0.0264,0.60309 0.016,0.60347 0.006,0.60364 -0.005,0.60366 -0.0153,0.60348 -0.0257,0.60312 -0.0361,0.6026 -0.0465,0.60188 -0.0568,0.60099 -0.0672,0.59992 -0.0775,0.59867 -0.0878,0.59725 -0.0981,0.59564 -0.10839,0.59387 -0.11862,0.5919 -0.1288,0.58977 -0.13896,0.58746 -0.14907,0.58498 -0.15914,0.58232 -0.16916,0.57949 -0.17912,0.57648 -0.18905,0.57331 -0.1989,0.56996 -0.2087,0.56645 -0.21844,0.56277 -0.22812,0.55891 -0.23772,0.55489 -0.24725,0.55072 -0.25672,0.54636 -0.2661,0.54186 -0.27541,0.53719 -0.28464,0.53236 -0.29377,0.52737 -0.30282,0.52222 -0.31178,0.51693 -0.32066,0.51146 -0.32943,0.50587 -0.3381,0.5001 -0.34668,0.4942 -0.35515,0.48815 -0.36352,0.48195 -0.37177,0.47561 -0.37993,0.46913 -0.13728,-0.33653"
         style="fill:#ffffff;stroke:#ffffff;stroke-width:2"
         id="path25" />
      <path
         inkscape:connector-curvature="0"
         clip-path="url(#p8909232319)"
         d="m 239.32901,171.80657 -0.30309,0.88783 -0.46854,0.89721 -0.56767,0.89837 -0.62484,0.89369 -0.65709,0.88482 -0.67419,0.87281 -0.68163,0.85833 -0.6826,0.8419 -0.67905,0.82393 -0.67223,0.80475 -0.66304,0.78468 -0.6521,0.76399 -0.63987,0.74293 -0.62675,0.7217 -0.61304,0.7005 -0.59897,0.67949 -0.58473,0.6588 -0.57052,0.63855 -0.55642,0.61883 -0.54258,0.5997 -0.52906,0.58124 -0.51594,0.56346 -0.50326,0.54641 -0.49106,0.53009 -0.47939,0.51453 -0.46824,0.49969 -0.45763,0.48561 -0.44758,0.47224 -0.43807,0.45958 -0.42913,0.44762 -0.42071,0.43631 -0.41284,0.42565 -0.40548,0.41561 -0.39866,0.40617 -0.39232,0.3973 -0.38649,0.38898 -0.38113,0.38117 -0.37625,0.37386 -0.37182,0.36703 -0.36783,0.36064 -0.36429,0.35468 -0.36116,0.34912 -0.35847,0.34394 -0.35617,0.33912 0,0 -0.39652,-0.36423 -0.39093,-0.37001 -0.38526,-0.37571 -0.37951,-0.38132 -0.37369,-0.38685 -0.36781,-0.39231 -0.36185,-0.39766 -0.35583,-0.40294 -0.34973,-0.40812 -0.34358,-0.41323 -0.33735,-0.41825 -0.33106,-0.42317 -0.3247,-0.42802 -0.31829,-0.43276 -0.3118,-0.43743 -0.30526,-0.442 -0.29866,-0.44648 -0.29198,-0.45087 -0.28527,-0.45518 -0.27848,-0.45938 -0.27163,-0.4635 -0.26474,-0.46752 -0.25778,-0.47145 -0.25076,-0.47529 -0.2437,-0.47903 -0.23658,-0.48268 -0.2294,-0.48623 -0.22217,-0.48969 -0.21489,-0.49304 -0.20756,-0.4963 -0.20018,-0.49947 -0.19275,-0.50254 -0.18526,-0.50549 -0.17774,-0.50837 -0.17016,-0.51113 -0.16253,-0.5138 -0.15487,-0.51636 -0.14715,-0.51882 -0.1394,-0.52118 -0.1316,-0.52343 -0.12375,-0.52559 -0.11587,-0.52763 -0.10794,-0.52958 -0.1,-0.5314 -0.092,-0.53314 -0.043,-0.26718 0.32946,-0.0968 0.33188,-0.096 0.33427,-0.0952 0.33662,-0.0944 0.33896,-0.0936 0.34125,-0.0929 0.34353,-0.0921 0.34577,-0.0914 0.34797,-0.0906 0.35017,-0.0899 0.35232,-0.0892 0.35444,-0.0884 0.35653,-0.0877 0.35861,-0.087 0.36064,-0.0863 0.36264,-0.0856 0.36463,-0.0849 0.36657,-0.0843 0.36848,-0.0836 0.37038,-0.0829 0.37223,-0.0822 0.37406,-0.0816 0.37586,-0.0809 0.37763,-0.0802 0.37936,-0.0796 0.38107,-0.0789 0.38275,-0.0782 0.3844,-0.0776 0.38601,-0.0769 0.38759,-0.0763 0.38916,-0.0756 0.39068,-0.075 0.39217,-0.0743 0.39363,-0.0737 0.39507,-0.073 0.39647,-0.0724 0.39784,-0.0717 0.39918,-0.0711 0.40049,-0.0704 0.40176,-0.0698 0.40302,-0.0691 0.40422,-0.0685 0.40542,-0.0678 0.40656,-0.0672 0.40768,-0.0665 0.40878,-0.0659 0.40983,-0.0652 0.41086,-0.0646 0.41186,-0.0639 0.41282,-0.0632 0.41375,-0.0626 0.41465,-0.0619 0.41551,-0.0613 0.41636,-0.0606 0.41716,-0.0599 0.41793,-0.0592 0.41867,-0.0586 0.41938,-0.0579 0.42006,-0.0572 0.4207,-0.0566 0.42132,-0.0559 0.42189,-0.0552 0.42244,-0.0545 0.42296,-0.0538 0.42345,-0.0531 0.42389,-0.0524 0.42432,-0.0517 0.4247,-0.051 0.42505,-0.0503 0.42538,-0.0496 0.42567,-0.0489 0.42593,-0.0482 0.42615,-0.0475 0.42635,-0.0468 0.42651,-0.0461 0.42664,-0.0453 0.42674,-0.0446 0.42679,-0.0439 0.42684,-0.0431 0.42683,-0.0424 0.4268,-0.0417 0.42673,-0.0409 0.42664,-0.0402 0.42651,-0.0394 0.42635,-0.0387 -0.0578,0.86852"
         style="fill:#ffffff;stroke:#ffffff;stroke-width:2"
         id="path27" />
      <path
         inkscape:connector-curvature="0"
         clip-path="url(#p8909232319)"
         d="m 209.2406,152.26692 2.36367,0.55919 2.92518,0.93573 3.1426,1.26032 3.49933,1.67069 3.29147,1.80026 3.69874,2.27 3.24749,2.21067 3.40977,2.58212 2.48223,2.17104 1.38302,1.55544 0.47448,0.81393 0.22823,0.84174 0,0 -0.0578,0.86852 -0.30309,0.88783 -1.03621,1.79558 -1.95612,2.65132 -3.37855,4.11359 -4.8424,5.52479 -5.30194,5.70017 -4.63898,4.65652 -3.52824,3.25774 -0.88967,0.769 -2.2131,-2.05811 -2.0273,-2.24135 -1.82639,-2.40788 -1.61185,-2.55647 -1.38531,-2.68599 -1.14843,-2.79548 -0.90298,-2.88413 -0.65082,-2.95128 -0.39378,-2.99642 -0.13383,-3.01923 0.12714,-3.01951 0.38714,-2.99728 0.64428,-2.95272 0.89659,-2.88612 1.14223,-2.79802 1.37935,-2.68905 1.60619,-2.56004 1.82105,-2.41192 0.0766,0.0148 0,0"
         style="fill:none;stroke:#000000;stroke-width:2"
         id="path29" />
      <path
         inkscape:connector-curvature="0"
         clip-path="url(#p8909232319)"
         d="m 263.03093,196.45257 -1.04635,-2.27426 -1.60945,-2.90351 -1.70796,-2.6539 -2.13226,-2.9481 -2.65057,-3.30366 -3.22352,-3.67429 -5.068,-5.61747 -0.59818,-0.83221 -0.44728,-0.84273 -0.21623,-0.85808 0.056,-0.87578 0.28904,-0.88947 0.97538,-1.78982 2.40092,-3.47884 7.75136,-10.86243 2.96598,-4.5862 0.10068,-0.16525 2.2118,2.05748 2.02614,2.24054 1.82541,2.4069 1.61106,2.55534 1.38471,2.68474 1.14806,2.79414 0.90284,2.88274 0.65092,2.94984 0.39412,2.99498 0.13441,3.01782 -0.12632,3.01816 -0.38609,2.99604 -0.64301,2.95157 -0.89511,2.88515 -1.14057,2.79721 -1.37751,2.68844 -1.6042,2.55965 -1.81895,2.41179 -0.13728,-0.33653 0,0"
         style="fill:none;stroke:#000000;stroke-width:2"
         id="path31" />
      <path
         inkscape:connector-curvature="0"
         clip-path="url(#p8909232319)"
         d="m 216.63249,145.48731 -0.43519,0.39945 -0.42723,0.40602 -0.41921,0.41243 -0.41112,0.41868 -0.40298,0.42477 -0.39479,0.43071 -0.38653,0.43648 -0.37824,0.44211 -0.36988,0.44757 -0.3615,0.45289 -0.35306,0.45804 -0.34459,0.46304 -0.33608,0.46789 -0.32753,0.47259 -0.31896,0.47714 -0.31036,0.48153 -0.47218,-0.11191 -0.47137,-0.10394 -0.47109,-0.0959 -0.0766,-0.0148 0.38367,-0.45698 0.39142,-0.45038 0.39903,-0.44364 0.40654,-0.43677 0.41392,-0.42978 0.42119,-0.42266 0.42834,-0.41541 0.43535,-0.40806 0.44225,-0.40057 0.44901,-0.39298 0.45565,-0.38526 0.46215,-0.37744 0.46851,-0.36951 0.47475,-0.36146 0.48084,-0.35332 0.48679,-0.34507 0.49261,-0.33672 -0.0235,0.0212"
         style="fill:#ff0000;stroke:#ff0000;stroke-width:2"
         id="path33" />
      <path
         inkscape:connector-curvature="0"
         clip-path="url(#p8909232319)"
         d="m 238.75277,209.19208 0.12069,-0.30711 0.11814,-0.30992 0.11562,-0.31267 0.11315,-0.31541 0.11074,-0.3181 0.10834,-0.32075 0.10601,-0.32338 0,0 0.56123,0.0161 0.56223,0.007 0.56309,-0.002 0.56382,-0.0114 0.56443,-0.0206 0.56489,-0.0299 0.56522,-0.0393 0.56541,-0.0487 0.56546,-0.0581 0.56537,-0.0676 0.56515,-0.0771 0.56477,-0.0867 0.56424,-0.0962 0.56357,-0.10586 0.56276,-0.11551 0.56179,-0.12519 0.56066,-0.1349 0.55939,-0.14463 0.55795,-0.15439 0.55636,-0.16417 0.55462,-0.17398 0.5527,-0.18379 0.55062,-0.19362 0.54839,-0.20347 0.54598,-0.21333 0.54342,-0.22319 0.54066,-0.23307 0.53776,-0.24293 0.2823,-0.13205 -0.50186,0.3256 -0.50736,0.31698 -0.5127,0.30826 -0.51789,0.29944 -0.52294,0.29056 -0.52782,0.28157 -0.53256,0.27251 -0.53714,0.26337 -0.54156,0.25415 -0.54583,0.24486 -0.54994,0.23549 -0.55387,0.22606 -0.55766,0.21655 -0.56128,0.207 -0.56474,0.19737 -0.56803,0.18769 -0.57115,0.17796 -0.57411,0.16816 -0.5769,0.15833 -0.57952,0.14845 -0.58198,0.13852 -0.58426,0.12855 -0.58637,0.11854 -0.58831,0.10851 -0.59008,0.0984 -0.59167,0.0883 -0.5931,0.0782 -0.59435,0.0681 -0.59542,0.0579 -0.59633,0.0477 0.0998,-0.24702"
         style="fill:#ff0000;stroke:#ff0000;stroke-width:2"
         id="path35" />
      <path
         inkscape:connector-curvature="0"
         clip-path="url(#p8909232319)"
         d="m 213.63624,201.00749 0.35436,-0.30541 0.35288,-0.30797 0.35176,-0.31064 0.351,-0.31345 0.3506,-0.31641 0.35059,-0.31957 0.35093,-0.32295 0.35167,-0.32657 0.35278,-0.33046 0.35427,-0.33463 0,0 0.40389,0.35997 0.40939,0.35397 0.41481,0.34788 0.42016,0.34172 0.42543,0.33547 0.43062,0.32915 0.43573,0.32273 0.44076,0.31624 0.4457,0.30967 0.45057,0.30303 0.45535,0.29629 0.46005,0.28949 0.46465,0.28261 0.46918,0.27565 0.47361,0.26861 0.47796,0.2615 0.48221,0.25431 0.48638,0.24705 0.49045,0.23971 0.49443,0.23231 0.49831,0.22481 0.5021,0.21727 0.50579,0.20964 0.50939,0.20193 0.51288,0.19417 0.51629,0.18634 0.51957,0.17842 0.52276,0.17045 0.52586,0.16241 0.52884,0.15429 0.53171,0.14612 0.53449,0.13788 0.53714,0.12957 0.5397,0.1212 0.54214,0.11277 0.54446,0.10428 0.54668,0.0957 0.54877,0.0871 0.55076,0.0784 0.55262,0.0697 0.55436,0.0609 0.55598,0.052 0.55748,0.0431 0.55886,0.0342 0.56011,0.0252 -0.10601,0.32338 -0.10834,0.32075 -0.11074,0.3181 -0.11315,0.31541 -0.11562,0.31267 -0.11814,0.30992 -0.12069,0.30711 -0.0998,0.24702 -0.60332,0.0378 -0.60387,0.0274 -0.60427,0.017 -0.60446,0.007 -0.60449,-0.004 -0.60434,-0.0143 -0.60399,-0.0248 -0.60348,-0.0352 -0.60278,-0.0456 -0.6019,-0.056 -0.60084,-0.0664 -0.59961,-0.0768 -0.59819,-0.0871 -0.5966,-0.0974 -0.59483,-0.10772 -0.59288,-0.11798 -0.59075,-0.1282 -0.58845,-0.13838 -0.58597,-0.14852 -0.58332,-0.15862 -0.58049,-0.16868 -0.5775,-0.17867 -0.57432,-0.18862 -0.57097,-0.19851 -0.56747,-0.20834 -0.56378,-0.21812 -0.55993,-0.22781 -0.55591,-0.23746 -0.55173,-0.24702 -0.54738,-0.25651 -0.54287,-0.26593 -0.53819,-0.27526 -0.53336,-0.28451 -0.52837,-0.29369 -0.52322,-0.30277 -0.5179,-0.31176 -0.51245,-0.32065 -0.50683,-0.32946 -0.50107,-0.33817 -0.49515,-0.34676 -0.48909,-0.35527 -0.48288,-0.36366 -0.47653,-0.37195 -0.47003,-0.38012 -0.4634,-0.38818 0.18243,-0.15562"
         style="fill:#ff0000;stroke:#ff0000;stroke-width:2"
         id="path37" />
      <path
         inkscape:connector-curvature="0"
         clip-path="url(#p8909232319)"
         d="m 258.76982,148.06182 -0.2507,0.40807 -0.25958,0.41748 -0.2689,0.42752 -0.27871,0.43825 -0.28901,0.44967 -0.29986,0.4618 -0.31125,0.47466 -0.32322,0.48828 -0.33579,0.50266 -0.34896,0.51781 -0.36275,0.53376 -0.37717,0.55046 -0.3922,0.56794 -0.40783,0.58616 -0.42401,0.60509 -0.44073,0.62467 -0.45789,0.64485 -0.47541,0.66555 -0.49317,0.68663 -0.51101,0.708 -0.52871,0.7295 -0.54603,0.75092 -0.56259,0.77209 -0.57797,0.79274 -0.59151,0.81263 -0.60238,0.83144 -0.60927,0.84883 -0.61025,0.86439 -0.6021,0.87766 -0.5793,0.88796 -0.53203,0.89437 -0.44335,0.89545 -0.28904,0.88947 -0.056,0.87578 0,0 -0.40979,0.0287 -0.41029,0.0295 -0.41077,0.0302 -0.41122,0.031 -0.41163,0.0317 -0.41201,0.0325 -0.0417,-0.42743 -0.0431,-0.42703 -0.0444,-0.42662 -0.0457,-0.42615 -0.047,-0.42566 -0.0484,-0.42513 -0.0497,-0.42458 -0.051,-0.42398 -0.0523,-0.42336 -0.0536,-0.4227 -0.055,-0.42201 -0.0563,-0.42128 -0.0576,-0.42052 -0.0589,-0.41974 -0.0602,-0.4189 -0.0615,-0.41805 -0.0629,-0.41716 -0.0642,-0.41624 -0.0655,-0.41527 -0.0668,-0.41429 -0.0681,-0.41326 -0.0694,-0.4122 -0.0708,-0.41112 -0.0721,-0.40999 -0.0734,-0.40884 -0.0747,-0.40764 -0.0761,-0.40642 -0.0774,-0.40517 -0.0787,-0.40388 -0.0801,-0.40256 -0.0814,-0.40121 -0.0827,-0.39982 -0.0841,-0.3984 -0.0854,-0.39694 -0.0868,-0.39546 -0.0881,-0.39394 -0.0895,-0.39239 -0.0908,-0.39081 -0.0922,-0.38919 -0.0936,-0.38754 -0.095,-0.38585 -0.0964,-0.38414 -0.0977,-0.38239 -0.0991,-0.38062 -0.10054,-0.37879 -0.10195,-0.37695 -0.10336,-0.37507 -0.10479,-0.37316 -0.10622,-0.37121 -0.10766,-0.36923 -0.10911,-0.36722 -0.11057,-0.36517 -0.11205,-0.3631 -0.11352,-0.36098 -0.11502,-0.35884 -0.11652,-0.35667 -0.11803,-0.35445 -0.11957,-0.3522 -0.12111,-0.34993 -0.12266,-0.34761 -0.12424,-0.34527 -0.12583,-0.34289 -0.12743,-0.34047 -0.12906,-0.33802 -0.13069,-0.33554 -0.13236,-0.33302 -0.13403,-0.33047 -0.13574,-0.32788 -0.13746,-0.32525 -0.1392,-0.3226 -0.14098,-0.31989 -0.14277,-0.31717 -0.14459,-0.3144 -0.14644,-0.31159 -0.14832,-0.30874 -0.15023,-0.30587 -0.15217,-0.30294 -0.15414,-0.29998 -0.15615,-0.29699 -0.1582,-0.29394 -0.16029,-0.29087 -0.16241,-0.28774 -0.16457,-0.28458 -0.0115,-0.0197 0.60308,-0.0375 0.60363,-0.0271 0.60401,-0.0167 0.60421,-0.006 0.60423,0.004 0.60407,0.0146 0.60372,0.025 0.6032,0.0354 0.6025,0.0459 0.60162,0.0563 0.60056,0.0666 0.59932,0.077 0.5979,0.0873 0.5963,0.0976 0.59453,0.10791 0.59258,0.11815 0.59045,0.12836 0.58815,0.13854 0.58566,0.14867 0.58302,0.15876 0.58018,0.1688 0.57719,0.17879 0.57401,0.18873 0.57067,0.19861 0.56715,0.20843 0.56348,0.21819 0.55962,0.22789 0.5556,0.23751 0.55142,0.24707 0.54708,0.25655 0.54256,0.26596 0.53789,0.27529 0.53306,0.28453 0.52806,0.29369 0.52292,0.30276 0.51762,0.31174 0.51215,0.32064 0.50654,0.32943 0.50078,0.33812 0.49487,0.34672 0.48881,0.35521 0.48261,0.36359 0.47625,0.37188 0.46977,0.38004 0.46313,0.38809 -0.10068,0.16525"
         style="fill:#ff0000;stroke:#ff0000;stroke-width:2"
         id="path39" />
      <path
         inkscape:connector-curvature="0"
         clip-path="url(#p8909232319)"
         d="m 233.69588,139.63537 0.16457,0.28458 0.16241,0.28774 0.16029,0.29087 0.1582,0.29394 0.15615,0.29699 0.15414,0.29998 0.15217,0.30294 0.15023,0.30587 0.14832,0.30874 0.14644,0.31159 0.14459,0.3144 0.14277,0.31717 0.14098,0.31989 0.1392,0.3226 0.13746,0.32525 0.13574,0.32788 0.13403,0.33047 0.13236,0.33302 0.13069,0.33554 0.12906,0.33802 0.12743,0.34047 0.12583,0.34289 0.12424,0.34527 0.12266,0.34761 0.12111,0.34993 0.11957,0.3522 0.11803,0.35445 0.11652,0.35667 0.11502,0.35884 0.11352,0.36098 0.11205,0.3631 0.11057,0.36517 0.10911,0.36722 0.10766,0.36923 0.10622,0.37121 0.10479,0.37316 0.10336,0.37507 0.10195,0.37695 0.10054,0.37879 0.0991,0.38062 0.0977,0.38239 0.0964,0.38414 0.095,0.38585 0.0936,0.38754 0.0922,0.38919 0.0908,0.39081 0.0895,0.39239 0.0881,0.39394 0.0868,0.39546 0.0854,0.39694 0.0841,0.3984 0.0827,0.39982 0.0814,0.40121 0.0801,0.40256 0.0787,0.40388 0.0774,0.40517 0.0761,0.40642 0.0747,0.40764 0.0734,0.40884 0.0721,0.40999 0.0708,0.41112 0.0694,0.4122 0.0681,0.41326 0.0668,0.41429 0.0655,0.41527 0.0642,0.41624 0.0629,0.41716 0.0615,0.41805 0.0602,0.4189 0.0589,0.41974 0.0576,0.42052 0.0563,0.42128 0.055,0.42201 0.0536,0.4227 0.0523,0.42336 0.051,0.42398 0.0497,0.42458 0.0484,0.42513 0.047,0.42566 0.0457,0.42615 0.0444,0.42662 0.0431,0.42703 0.0417,0.42743 0,0 -0.41238,0.0332 -0.41271,0.0339 -0.413,0.0347 -0.41328,0.0354 -0.41351,0.0361 -0.41373,0.0368 -0.22823,-0.84174 -0.47448,-0.81393 -0.64129,-0.78896 -0.74173,-0.76648 -0.79986,-0.7451 -0.83261,-0.72381 -0.84976,-0.70213 -0.8568,-0.67994 -0.85695,-0.65723 -0.85219,-0.63414 -0.84383,-0.61081 -0.8328,-0.58739 -0.81976,-0.56406 -0.80525,-0.54097 -0.78968,-0.51825 -0.7734,-0.496 -0.75669,-0.47432 -0.73976,-0.4533 -0.72284,-0.43298 -0.70605,-0.4134 -0.68954,-0.39458 -0.67343,-0.37655 -0.65776,-0.35928 -0.64264,-0.3428 -0.6281,-0.32705 -0.61417,-0.31205 -0.6009,-0.29775 -0.58828,-0.28411 -0.57636,-0.27113 -0.5651,-0.25873 -0.55452,-0.24692 -0.54464,-0.23563 -0.53541,-0.22483 -0.52685,-0.21448 -0.51895,-0.20456 -0.51169,-0.19502 -0.50506,-0.1858 -0.49905,-0.1769 -0.49365,-0.16826 -0.48885,-0.15985 -0.48465,-0.15161 -0.48101,-0.14354 -0.47797,-0.13557 -0.47548,-0.12767 -0.47355,-0.11979 0,0 0.31036,-0.48153 0.31896,-0.47714 0.32753,-0.47259 0.33608,-0.46789 0.34459,-0.46304 0.35306,-0.45804 0.3615,-0.45289 0.36988,-0.44757 0.37824,-0.44211 0.38653,-0.43648 0.39479,-0.43071 0.40298,-0.42477 0.41112,-0.41868 0.41921,-0.41243 0.42723,-0.40602 0.43519,-0.39945 0.0235,-0.0212 0.50692,-0.33387 0.51264,-0.32503 0.5182,-0.31609 0.5236,-0.30705 0.52885,-0.29793 0.53393,-0.28871 0.53886,-0.27941 0.54363,-0.27002 0.54823,-0.26055 0.55266,-0.25101 0.55693,-0.24138 0.56104,-0.23169 0.56497,-0.22193 0.56873,-0.21209 0.57233,-0.2022 0.57574,-0.19224 0.579,-0.18223 0.58206,-0.17217 0.58497,-0.16204 0.58768,-0.15187 0.59023,-0.14166 0.5926,-0.1314 0.59479,-0.1211 0.5968,-0.11078 0.59864,-0.1004 0.60028,-0.09 0.60175,-0.0796 0.60304,-0.0691 0.60416,-0.0587 0.60507,-0.0482 0.0115,0.0197"
         style="fill:#ff0000;stroke:#ff0000;stroke-width:2"
         id="path41" />
      <path
         inkscape:connector-curvature="0"
         clip-path="url(#p8909232319)"
         d="m 255.1774,203.85802 -0.53776,0.24293 -0.54066,0.23307 -0.54342,0.22319 -0.54598,0.21333 -0.54839,0.20347 -0.55062,0.19362 -0.5527,0.18379 -0.55462,0.17398 -0.55636,0.16417 -0.55795,0.15439 -0.55939,0.14463 -0.56066,0.1349 -0.56179,0.12519 -0.56276,0.11551 -0.56357,0.10586 -0.56424,0.0962 -0.56477,0.0867 -0.56515,0.0771 -0.56537,0.0676 -0.56546,0.0581 -0.56541,0.0487 -0.56522,0.0393 -0.56489,0.0299 -0.56443,0.0206 -0.56382,0.0114 -0.56309,0.002 -0.56223,-0.007 -0.56123,-0.0161 0.10369,-0.32598 0.10143,-0.32853 0.0992,-0.33105 0.097,-0.33355 0.0948,-0.33601 0.0927,-0.33843 0.0906,-0.34083 0.0885,-0.34319 0.0864,-0.34552 0.0844,-0.34782 0.0824,-0.35008 0.0804,-0.35232 0.0784,-0.35452 0.0765,-0.35669 0.0746,-0.35884 0.0727,-0.36094 0.0708,-0.36302 0.069,-0.36506 0.0671,-0.36708 0.0653,-0.36906 0.0635,-0.37101 0.0617,-0.37293 0.06,-0.37482 0.0582,-0.37668 0.0565,-0.3785 0.0547,-0.3803 0.053,-0.38206 0.0513,-0.38379 0.0496,-0.38549 0.048,-0.38716 0.0463,-0.3888 0.0447,-0.3904 0.043,-0.39198 0.0414,-0.39352 0.0398,-0.39503 0.0382,-0.39651 0.0366,-0.39796 0.035,-0.39937 0.0334,-0.40076 0.0319,-0.4021 0.0303,-0.40343 0.0288,-0.40472 0.0272,-0.40597 0.0257,-0.40719 0.0242,-0.40839 0.0226,-0.40955 0.0211,-0.41067 0.0196,-0.41177 0.0181,-0.41283 0.0166,-0.41386 0.0152,-0.41486 0.0137,-0.41582 0.0122,-0.41676 0.0108,-0.41766 0.009,-0.41852 0.008,-0.41936 0.006,-0.42017 0.005,-0.42093 0.004,-0.42167 0.002,-0.42238 6.7e-4,-0.42304 -7.6e-4,-0.42369 -0.002,-0.42429 -0.004,-0.42486 -0.005,-0.4254 -0.006,-0.42591 -0.008,-0.42639 -0.009,-0.42682 -0.0106,-0.42723 -0.012,-0.42761 -0.0134,-0.42795 -0.0147,-0.42826 -0.0161,-0.42853 -0.0175,-0.42877 -0.0189,-0.42898 -0.0202,-0.42916 -0.0216,-0.42929 -0.0229,-0.42941 -0.0243,-0.42948 -0.0257,-0.42953 -0.027,-0.42953 -0.0284,-0.42951 -0.0297,-0.42945 -0.0311,-0.42936 -0.0324,-0.42924 -0.0337,-0.42907 -0.0351,-0.42889 -0.0364,-0.42866 -0.0377,-0.4284 -0.0391,-0.42811 -0.0404,-0.42778 0.41201,-0.0325 0.41163,-0.0317 0.41122,-0.031 0.41077,-0.0302 0.41029,-0.0295 0.40979,-0.0287 0.21623,0.85808 0.44728,0.84273 0.59818,0.83221 0.68258,0.82493 0.72497,0.8187 0.74253,0.8122 0.74514,0.80473 0.7384,0.79602 0.72561,0.78604 0.70877,0.77485 0.68922,0.76256 0.66787,0.74936 0.64537,0.73542 0.62223,0.72092 0.59883,0.70603 0.57544,0.69092 0.5523,0.67571 0.52958,0.66057 0.50739,0.64558 0.48586,0.63088 0.46503,0.61651 0.44495,0.60257 0.42567,0.5891 0.40716,0.57616 0.38945,0.56376 0.37251,0.55196 0.35634,0.54075 0.34089,0.53016 0.32615,0.52019 0.31207,0.51084 0.29863,0.50213 0.28578,0.49402 0.27347,0.48654 0.2617,0.47967 0.25037,0.4734 0.2395,0.46775 0.229,0.46266 0.21885,0.45818 0.20901,0.45428 0.19943,0.45095 0.19006,0.44819 0.13728,0.33653 -0.37145,0.44315 -0.37873,0.43696 -0.38589,0.43065 -0.39296,0.42421 -0.39991,0.41766 -0.40675,0.41099 -0.41349,0.40422 -0.42011,0.39734 -0.42662,0.39033 -0.43301,0.38324 -0.43928,0.37603 -0.44543,0.36873 -0.45147,0.36131 -0.45737,0.35381 -0.46315,0.3462 -0.46881,0.3385 -0.47434,0.33071 -0.47974,0.32283 -0.2823,0.13205"
         style="fill:#ff0000;stroke:#ff0000;stroke-width:2"
         id="path43" />
      <path
         inkscape:connector-curvature="0"
         clip-path="url(#p8909232319)"
         d="m 239.54546,206.98474 -0.56011,-0.0252 -0.55886,-0.0342 -0.55748,-0.0431 -0.55598,-0.052 -0.55436,-0.0609 -0.55262,-0.0697 -0.55076,-0.0784 -0.54877,-0.0871 -0.54668,-0.0957 -0.54446,-0.10428 -0.54214,-0.11277 -0.5397,-0.1212 -0.53714,-0.12957 -0.53449,-0.13788 -0.53171,-0.14612 -0.52884,-0.15429 -0.52586,-0.16241 -0.52276,-0.17045 -0.51957,-0.17842 -0.51629,-0.18634 -0.51288,-0.19417 -0.50939,-0.20193 -0.50579,-0.20964 -0.5021,-0.21727 -0.49831,-0.22481 -0.49443,-0.23231 -0.49045,-0.23971 -0.48638,-0.24705 -0.48221,-0.25431 -0.47796,-0.2615 -0.47361,-0.26861 -0.46918,-0.27565 -0.46465,-0.28261 -0.46005,-0.28949 -0.45535,-0.29629 -0.45057,-0.30303 -0.4457,-0.30967 -0.44076,-0.31624 -0.43573,-0.32273 -0.43062,-0.32915 -0.42543,-0.33547 -0.42016,-0.34172 -0.41481,-0.34788 -0.40939,-0.35397 -0.40389,-0.35997 0.35617,-0.33912 0.35847,-0.34394 0.36116,-0.34912 0.36429,-0.35468 0.36783,-0.36064 0.37182,-0.36703 0.37625,-0.37386 0.38113,-0.38117 0.38649,-0.38898 0.39232,-0.3973 0.39866,-0.40617 0.40548,-0.41561 0.41284,-0.42565 0.42071,-0.43631 0.42913,-0.44762 0.43807,-0.45958 0.44758,-0.47224 0.45763,-0.48561 0.46824,-0.49969 0.47939,-0.51453 0.49106,-0.53009 0.50326,-0.54641 0.51594,-0.56346 0.52906,-0.58124 0.54258,-0.5997 0.55642,-0.61883 0.57052,-0.63855 0.58473,-0.6588 0.59897,-0.67949 0.61304,-0.7005 0.62675,-0.7217 0.63987,-0.74293 0.6521,-0.76399 0.66304,-0.78468 0.67223,-0.80475 0.67905,-0.82393 0.6826,-0.8419 0.68163,-0.85833 0.67419,-0.87281 0.65709,-0.88482 0.62484,-0.89369 0.56767,-0.89837 0.46854,-0.89721 0.30309,-0.88783 0.0578,-0.86852 0,0 0.41373,-0.0368 0.41351,-0.0361 0.41328,-0.0354 0.413,-0.0347 0.41271,-0.0339 0.41238,-0.0332 0,0 0.0404,0.42778 0.0391,0.42811 0.0377,0.4284 0.0364,0.42866 0.0351,0.42889 0.0337,0.42907 0.0324,0.42924 0.0311,0.42936 0.0297,0.42945 0.0284,0.42951 0.027,0.42953 0.0257,0.42953 0.0243,0.42948 0.0229,0.42941 0.0216,0.42929 0.0202,0.42916 0.0189,0.42898 0.0175,0.42877 0.0161,0.42853 0.0147,0.42826 0.0134,0.42795 0.012,0.42761 0.0106,0.42723 0.009,0.42682 0.008,0.42639 0.006,0.42591 0.005,0.4254 0.004,0.42486 0.002,0.42429 7.6e-4,0.42369 -6.7e-4,0.42304 -0.002,0.42238 -0.004,0.42167 -0.005,0.42093 -0.006,0.42017 -0.008,0.41936 -0.009,0.41852 -0.0108,0.41766 -0.0122,0.41676 -0.0137,0.41582 -0.0152,0.41486 -0.0166,0.41386 -0.0181,0.41283 -0.0196,0.41177 -0.0211,0.41067 -0.0226,0.40955 -0.0242,0.40839 -0.0257,0.40719 -0.0272,0.40597 -0.0288,0.40472 -0.0303,0.40343 -0.0319,0.4021 -0.0334,0.40076 -0.035,0.39937 -0.0366,0.39796 -0.0382,0.39651 -0.0398,0.39503 -0.0414,0.39352 -0.043,0.39198 -0.0447,0.3904 -0.0463,0.3888 -0.048,0.38716 -0.0496,0.38549 -0.0513,0.38379 -0.053,0.38206 -0.0547,0.3803 -0.0565,0.3785 -0.0582,0.37668 -0.06,0.37482 -0.0617,0.37293 -0.0635,0.37101 -0.0653,0.36906 -0.0671,0.36708 -0.069,0.36506 -0.0708,0.36302 -0.0727,0.36094 -0.0746,0.35884 -0.0765,0.35669 -0.0784,0.35452 -0.0804,0.35232 -0.0824,0.35008 -0.0844,0.34782 -0.0864,0.34552 -0.0885,0.34319 -0.0906,0.34083 -0.0927,0.33843 -0.0948,0.33601 -0.097,0.33355 -0.0992,0.33105 -0.10143,0.32853 -0.10369,0.32598 0,0"
         style="fill:#ff0000;stroke:#ff0000;stroke-width:2"
         id="path45" />
      <path
         inkscape:connector-curvature="0"
         clip-path="url(#p8909232319)"
         d="m 258.76982,148.06182 -2.61702,4.06839 -3.68695,5.29629 -6.81429,9.56279 -0.97538,1.78982 -0.28904,0.88947 -0.056,0.87578 0,0 0.21623,0.85808 0.44728,0.84273 1.28076,1.65714 4.38542,4.79254 3.79896,4.36521 2.54016,3.22925 2.39608,3.4243 1.83699,3.04388 1.40843,2.79594 0.52677,1.23567 -2.0418,2.26803 -2.2316,2.08155 -2.40444,1.87925 -2.559,1.66266 -2.69411,1.43342 -2.80873,1.1933 -2.90199,0.94409 -2.97321,0.68772 -3.02181,0.42611 -3.04744,0.16127 -3.04991,-0.10481 -3.02918,-0.37008 -2.98543,-0.63254 -2.91899,-0.8902 -2.83034,-1.14108 -2.72019,-1.38329 -2.58935,-1.61498 -2.43883,-1.8344 -0.46805,-0.39201 2.99622,-2.67859 4.03066,-3.92363 4.75005,-4.96031 4.89254,-5.41657 4.54608,-5.34248 2.69551,-3.45786 1.19251,-1.79206 0.46854,-0.89721 0.30309,-0.88783 0.0578,-0.86852 0,0 -0.22823,-0.84174 -0.47448,-0.81393 -1.38302,-1.55544 -2.48223,-2.17104 -3.40977,-2.58212 -4.02089,-2.70667 -3.61488,-2.16858 -3.817,-2.01548 -3.36431,-1.52135 -3.05525,-1.14502 -2.88151,-0.83803 -1.49125,-0.32654 2.04252,-2.26639 2.23213,-2.07989 2.40479,-1.8776 2.55917,-1.66104 2.69409,-1.43186 2.80856,-1.1918 2.90168,-0.94267 2.97276,-0.6864 3.02123,-0.4249 3.04676,-0.16017 3.04913,0.10578 3.02833,0.37091 2.98453,0.63323 2.91804,0.89074 2.82938,1.14149 2.71923,1.38355 2.5884,1.6151 2.43791,1.83439 0.46787,0.39199 -0.10068,0.16525 0,0"
         style="fill:none;stroke:#000000;stroke-width:2"
         id="path47" />
    </g>
  </g>
</svg>
