<?xml version="1.0" encoding="UTF-8" standalone="no"?>
<!-- Created with Inkscape (http://www.inkscape.org/) -->

<svg
   xmlns:dc="http://purl.org/dc/elements/1.1/"
   xmlns:cc="http://creativecommons.org/ns#"
   xmlns:rdf="http://www.w3.org/1999/02/22-rdf-syntax-ns#"
   xmlns:svg="http://www.w3.org/2000/svg"
   xmlns="http://www.w3.org/2000/svg"
   xmlns:sodipodi="http://sodipodi.sourceforge.net/DTD/sodipodi-0.dtd"
   xmlns:inkscape="http://www.inkscape.org/namespaces/inkscape"
   width="250"
   height="172"
   id="svg4135"
   version="1.1"
   inkscape:version="0.48.3.1 r9886"
   sodipodi:docname="New document 17">
  <defs
     id="defs4137" />
  <sodipodi:namedview
     id="base"
     pagecolor="#ffffff"
     bordercolor="#666666"
     borderopacity="1.0"
     inkscape:pageopacity="0.0"
     inkscape:pageshadow="2"
     inkscape:zoom="2"
     inkscape:cx="253.29814"
     inkscape:cy="54.74994"
     inkscape:document-units="px"
     inkscape:current-layer="layer1"
     showgrid="false"
     inkscape:window-width="1360"
     inkscape:window-height="720"
     inkscape:window-x="0"
     inkscape:window-y="0"
     inkscape:window-maximized="0" />
  <metadata
     id="metadata4140">
    <rdf:RDF>
      <cc:Work
         rdf:about="">
        <dc:format>image/svg+xml</dc:format>
        <dc:type
           rdf:resource="http://purl.org/dc/dcmitype/StillImage" />
        <dc:title></dc:title>
      </cc:Work>
    </rdf:RDF>
  </metadata>
  <g
     inkscape:label="Layer 1"
     inkscape:groupmode="layer"
     id="layer1"
     transform="translate(0,-880.36218)">
    <g
       transform="matrix(0.40610054,0,0,0.40610054,-28.320734,753.98536)"
       style="display:inline"
       id="g4080">
      <path
         style="fill:#babdb6;stroke:#000000;stroke-width:1px;stroke-linecap:butt;stroke-linejoin:miter;stroke-opacity:1"
         d="m 315.16759,618.80369 c 28.4528,-28.48939 179.53929,-159.56578 207.08128,-180.81731 27.54199,-21.25153 72.33747,15.53371 49.49747,45.45687 -22.84,29.92316 -166.71121,163.01126 -208.09142,192.93913 -41.38021,29.92787 -76.94012,-29.0893 -48.48733,-57.57869 z"
         id="path3050"
         inkscape:connector-curvature="0"
         sodipodi:nodetypes="zzzzz" />
      <path
         sodipodi:nodetypes="zzzzz"
         inkscape:connector-curvature="0"
         id="path3848"
         d="m 315.16759,612.13703 c 28.4528,-28.48939 179.53929,-159.56578 207.08128,-180.81731 27.54199,-21.25153 72.33747,15.53371 49.49747,45.45687 -22.84,29.92316 -166.71121,163.01126 -208.09142,192.93913 -41.38021,29.92787 -76.94012,-29.0893 -48.48733,-57.57869 z"
         style="fill:#babdb6;stroke:#000000;stroke-width:1px;stroke-linecap:butt;stroke-linejoin:miter;stroke-opacity:1" />
      <path
         style="fill:#babdb6;stroke:#000000;stroke-width:1px;stroke-linecap:butt;stroke-linejoin:miter;stroke-opacity:1"
         d="m 315.16759,605.47035 c 28.4528,-28.48939 179.53929,-159.56578 207.08128,-180.81731 27.54199,-21.25153 72.33747,15.53371 49.49747,45.45687 -22.84,29.92316 -166.71121,163.01126 -208.09142,192.93913 -41.38021,29.92787 -76.94012,-29.0893 -48.48733,-57.57869 z"
         id="path3850"
         inkscape:connector-curvature="0"
         sodipodi:nodetypes="zzzzz" />
      <g
         style="fill:#babdb6"
         id="g4068">
        <path
           style="fill:#babdb6;stroke:#000000;stroke-width:1px;stroke-linecap:butt;stroke-linejoin:miter;stroke-opacity:1"
           d="m 476.792,538.19454 c 8.87664,-0.47986 14.26625,15.93261 11.11168,24.24366 -19.93243,37.59642 -37.20263,63.98434 -50.02793,100.51453 -6.68961,10.08641 -0.50067,20.2573 -4.98949,30.14177 -3.21052,7.06964 -12.78733,16.27777 -21.27448,15.33612 -4.69723,-0.52116 -2.21391,-2.92901 -3.86729,-7.35642 -1.76698,-4.73159 -7.8727,-2.07543 -7.30566,-11.40754 0.24592,-4.04715 3.36043,-14.71416 7.36694,-14.09138 6.55386,1.01875 -2.11663,15.96841 9.15264,13.89704 10.15887,-1.86728 4.60688,-15.36853 8.31581,-25.00871 13.27234,-34.49722 30.34221,-67.46024 43.43656,-102.02541 3.01773,-7.96591 -0.42471,-23.78384 8.08122,-24.24366 z"
           id="path3846"
           inkscape:connector-curvature="0"
           sodipodi:nodetypes="sccsssssssss" />
        <path
           style="fill:#babdb6;stroke:#000000;stroke-width:1px;stroke-linecap:butt;stroke-linejoin:miter;stroke-opacity:1"
           d="m 264.15489,403.84425 c 39.56765,-25.44038 71.20693,-15.65327 112.63201,-6.06091 47.32455,10.95843 127.28409,25.77801 135.36044,29.29442 20.35553,8.86273 7.03028,38.32041 -5.05076,36.36549 -36.53241,-5.91158 -144.66856,-24.35114 -182.83761,-31.8198 -24.66954,-4.82717 -64.90744,-24.69084 -60.10408,-27.7792 z"
           id="path3056"
           inkscape:connector-curvature="0"
           sodipodi:nodetypes="ssssss" />
        <path
           style="fill:#babdb6;stroke:#000000;stroke-width:1px;stroke-linecap:butt;stroke-linejoin:miter;stroke-opacity:1"
           d="m 555.5839,412.93562 c -57.97409,-51.08955 -81.86164,-74.37536 -97.92352,-78.19491 -3.74402,-0.89033 -12.77828,4.4599 -10.10152,6.06092 4.2328,2.53172 2.26831,3.72688 -0.83159,14.91244 -1.97224,7.11656 1.65552,23.23754 8.85152,24.89667 7.68786,1.77252 13.0364,-14.78502 18.59592,-13.73423 4.83886,0.91457 23.94533,19.8983 28.47335,26.8102 5.44932,8.31824 -8.22153,15.642 -14.36622,12.11207 -15.0167,-8.62662 -5.985,-19.55458 -12.3827,-14.07636 -12.75578,10.92251 16.696,36.26602 30.95759,40.58993 11.21822,3.4012 62.47593,-7.26066 48.72717,-19.37673 z"
           id="path3054"
           inkscape:connector-curvature="0"
           sodipodi:nodetypes="sssssssssss" />
        <path
           id="path3060"
           style="color:#000000;fill:#babdb6;stroke:#000000;stroke-width:1;stroke-miterlimit:4;stroke-opacity:1;stroke-dasharray:none;marker:none;visibility:visible;display:inline;overflow:visible;enable-background:accumulate"
           d="m 393.70695,422.02698 c -6.27628,0 -10.35406,3.96472 -10.35406,10.10153 0,6.13681 3.5727,9.59645 9.84898,9.59645 6.27629,0 11.36422,-3.96472 11.36422,-10.10153 0,-6.13681 -4.58285,-9.59645 -10.85914,-9.59645 z m -84.60027,183.3427 c 5.14946,-16.62142 43.76064,-126.01671 63.63961,-186.37314 7.40835,-22.4932 32.81845,-61.26798 37.88072,-60.10408 4.82846,1.11015 -1.75593,11.86076 -2.52538,14.64721 -0.76945,2.78645 -3.22686,0.21871 -5.55584,6.56599 -2.32898,6.34728 0.92016,6.74031 0.25253,8.33377 -0.66763,1.59345 -3.50238,1.06065 -4.0406,6.06091 -0.53822,5.00026 2.82081,3.20154 1.76777,6.81853 -1.05304,3.61699 -5.20715,8.30856 0.12626,9.97525 5.33341,1.66669 5.62296,-5.34939 5.93465,-9.47018 0.31169,-4.12079 3.47601,-0.30073 4.04061,-4.54568 0.5646,-4.24495 -1.12858,-4.29607 -1.01016,-6.06092 0.11842,-1.76485 3.5384,-1.0364 5.05077,-6.81853 1.51237,-5.78213 -0.64933,-6.45435 -0.25253,-8.83884 0.39679,-2.38448 2.92108,-15.43306 5.80837,-15.15228 5.33423,0.51873 6.46879,51.18706 -0.92349,73.95035 -9.35324,28.8017 -14.07122,47.32245 -16.2491,85.65375 -0.55441,9.75778 -19.18588,31.47837 -19.69798,21.71828 -1.51825,-28.93653 10.61869,-73.48169 9.09137,-85.86297 -0.29512,-2.3924 -3.53613,-1.31583 -5.55583,1e-5 -5.93527,3.86682 -31.7859,78.36715 -47.98225,123.2386 -4.94157,13.69047 -34.10679,40.16704 -29.7995,26.26397 z"
           inkscape:connector-curvature="0"
           sodipodi:nodetypes="sssssssszzzzzzzzzzzssssssss" />
        <path
           style="fill:#babdb6;stroke:#000000;stroke-width:1px;stroke-linecap:butt;stroke-linejoin:miter;stroke-opacity:1"
           d="m 313.65237,635.67426 c -12.23059,7.9885 -24.81187,-31.36648 -30.80966,-50.00255 -34.39712,-106.87727 -26.43889,-96.71883 -28.66069,-106.69826 -10.9398,-49.13728 -18.1721,-84.42067 -17.04871,-84.72565 6.41354,-1.74111 19.45689,6.08392 29.54695,36.11295 5.36134,15.95586 10.33328,33.06977 16.16245,48.9924 5.33801,14.581 -5.86784,38.88577 -3.53553,47.72971 5.43732,20.61797 21.47363,52.1705 29.29442,80.30713 2.56483,9.22741 13.06915,23.04701 5.05077,28.28427 z"
           id="path3834"
           inkscape:connector-curvature="0"
           sodipodi:nodetypes="sssssssss" />
        <path
           id="path3836"
           style="color:#000000;fill:#babdb6;stroke:#000000;stroke-width:1;stroke-linecap:butt;stroke-linejoin:miter;stroke-miterlimit:4;stroke-opacity:1;stroke-dashoffset:0;marker:none;visibility:visible;display:inline;overflow:visible;enable-background:accumulate"
           d="m 273.24626,486.42422 c 0,1.81315 -1.58291,3.283 -3.53554,3.283 -1.95262,0 -3.53553,-1.46985 -3.53553,-3.283 0,-1.81314 1.58291,-3.28299 3.53553,-3.28299 1.95263,0 3.53554,1.46985 3.53554,3.28299 z m 88.89343,70.45814 c -4.16748,-2.88451 -48.05693,-43.34009 -76.7716,-76.77159 -6.90982,-8.04487 -6.59322,-9.65799 -16.92005,-8.08123 -3.27415,0.49992 -61.85408,-65.96396 -63.13454,-63.38707 -5.8338,11.74045 5.14775,32.34386 15.90991,44.69925 29.04862,33.34898 41.52499,54.60154 45.96193,54.54824 10.93403,-0.13136 22.42692,-6.51486 43.94164,19.1929 12.04077,14.38742 30.16987,31.32661 38.3858,40.4061 3.6882,4.07586 17.14672,-7.47823 12.62691,-10.6066 z"
           inkscape:connector-curvature="0" />
        <path
           style="fill:#babdb6;stroke:#000000;stroke-width:1px;stroke-linecap:butt;stroke-linejoin:miter;stroke-opacity:1"
           d="m 314.28572,623.79075 c -6.54929,-10.1888 -41.2201,-43.70341 -62.60533,-60.48239 -35.36166,-27.74497 -55.52441,-31.83213 -55.60897,-28.44617 -0.22773,9.11938 -5.14845,18.16772 41.57651,61.48613 34.44915,31.93758 66.15147,56.22491 77.35207,54.58529 12.79985,-1.87373 6.2806,-16.26083 -0.71428,-27.14286 z"
           id="path3840"
           inkscape:connector-curvature="0"
           sodipodi:nodetypes="ssssss" />
        <path
           style="fill:#babdb6;stroke:#000000;stroke-width:1px;stroke-linecap:butt;stroke-linejoin:miter;stroke-opacity:1"
           d="m 482.85714,540.93361 c 2.44519,0.71035 3.80649,153.49623 4.28572,156.42857 0.57146,3.49672 -6.6994,13.9207 -10.35715,13.92858 -3.75655,0.008 -12.05109,-10.02697 -12.14285,-13.57143 -0.0821,-3.16966 1.63748,-134.90553 2.5,-138.21429 0.70985,-2.7231 13.16709,-19.31141 15.71428,-18.57143 z"
           id="path3844"
           inkscape:connector-curvature="0"
           sodipodi:nodetypes="ssssss" />
        <path
           style="fill:#babdb6;stroke:#000000;stroke-width:1px;stroke-linecap:butt;stroke-linejoin:miter;stroke-opacity:1"
           d="m 175.76655,627.08796 c -1.54992,0.59716 -3.88613,22.75647 -1.51523,23.48605 21.49239,6.61376 28.64998,9.76485 67.17514,6.81853 29.7846,-2.27786 78.06246,2.96167 77.78174,-6.06092 -0.39874,-12.81562 -3.2669,-26.33483 -12.12183,-35.60787 -9.93419,-10.40327 -20.97322,-14.40838 -38.38579,-13.8896 -4.25729,0.12684 -10.29652,1.80213 -10.35406,6.06092 -0.0532,3.94081 7.98665,-0.56697 9.59644,3.03045 2.96256,6.6205 -3.20831,14.0609 -8.33376,19.1929 -4.42513,4.43079 -23.82739,7.04508 -39.39595,0 -6.8719,-3.10967 -31.67219,-7.95231 -44.4467,-3.03046 z"
           id="path3842"
           inkscape:connector-curvature="0"
           sodipodi:nodetypes="sssssssssss" />
        <path
           style="fill:#babdb6;stroke:#000000;stroke-width:1px;stroke-linecap:butt;stroke-linejoin:miter;stroke-opacity:1"
           d="m 488.91383,541.73007 c 75.33824,67.35896 82.38608,92.22844 92.93404,120.71323 -36.9054,-33.90687 -75.0202,-72.51235 -106.5711,-109.09647 z"
           id="path3052"
           inkscape:connector-curvature="0"
           sodipodi:nodetypes="cccc" />
      </g>
      <path
         sodipodi:nodetypes="zzzzz"
         inkscape:connector-curvature="0"
         id="path3048"
         d="m 315.16759,598.80369 c 28.4528,-28.48939 179.53929,-159.56578 207.08128,-180.81731 27.54199,-21.25153 72.33747,15.53371 49.49747,45.45687 -22.84,29.92316 -166.71121,163.01126 -208.09142,192.93913 -41.38021,29.92787 -76.94012,-29.0893 -48.48733,-57.57869 z"
         style="fill:#000000;fill-opacity:1;stroke:#000000;stroke-width:1px;stroke-linecap:butt;stroke-linejoin:miter;stroke-opacity:1" />
      <g
         transform="matrix(0.97842916,-0.20658258,0.20658258,0.97842916,-96.87061,119.34948)"
         id="g4061">
        <path
           sodipodi:type="arc"
           style="fill:#ffffff;fill-opacity:1;stroke:#000000;stroke-width:2;stroke-opacity:1"
           id="path3821"
           sodipodi:cx="382.5"
           sodipodi:cy="529.86218"
           sodipodi:rx="63.214287"
           sodipodi:ry="63.214287"
           d="m 445.71429,529.86218 c 0,34.91229 -28.302,63.21429 -63.21429,63.21429 -34.91229,0 -63.21429,-28.302 -63.21429,-63.21429 0,-34.91228 28.302,-63.21428 63.21429,-63.21428 34.91229,0 63.21429,28.302 63.21429,63.21428 z"
           transform="matrix(0.29921044,0.30297811,-0.30297811,0.29921044,559.75124,199.62042)" />
        <path
           style="fill:#000000;fill-opacity:1;stroke:none"
           d="m 532.82337,455.13535 c -9.71888,-9.84127 -25.15048,-10.6179 -35.7704,-2.26568 -0.38816,0.60055 -0.69316,1.09432 -0.84583,1.34027 -1.08657,1.7504 -1.70582,4.15674 -2.35199,5.95095 -0.64616,1.79422 -0.81765,2.25365 -0.74437,6.17743 0.0733,3.92377 4.87409,7.53582 8.09783,11.31656 1.51746,1.77964 2.95121,6.12436 3.84151,8.43645 0.8903,2.31208 1.90162,2.92895 2.15819,2.86847 0.25658,-0.0605 -0.54564,-1.55435 -0.34172,-3.36017 0.15128,-1.33965 0.22378,-2.38829 0.1807,-3.69181 -0.0431,-1.3035 -1.04234,-4.02798 -1.04234,-4.02798 -0.68582,-1.72471 0.16311,-3.95602 1.36543,-4.67742 0,0 -1.29756,3.70502 -0.49166,3.38437 1.35371,-1.40461 3.97389,-0.72881 3.97539,-0.72789 -0.98305,0.71177 -2.17271,0.93179 -3.68172,2.6202 0,0 0.79905,1.49212 0.8242,3.27979 0.0203,1.44125 -0.33717,2.22986 -0.41687,3.69948 -0.0619,1.14125 0.16984,3.0016 0.27932,3.06588 0.10948,0.0643 2.86609,-2.37051 5.83537,-1.22155 2.94354,1.139 3.51934,4.36373 3.83362,4.06446 0.31429,-0.29926 -0.14517,-2.33817 0.89842,-4.60225 1.17383,-2.54668 3.15816,-7.18259 3.33056,-8.95589 0.1724,-1.7733 -0.35899,-1.96353 -0.76852,-5.00128 -0.66134,-4.9055 3.96438,-7.99215 3.96438,-7.99215 0,0 0.37476,2.57035 4.37989,5.30617 3.09846,2.11649 7.47743,0.50666 7.58416,-0.009 0.12557,-0.6067 -1.85009,-1.09354 -3.12506,-2.73599 -1.08775,-1.40127 -0.34065,-8.32435 -0.12731,-11.33284 -0.27547,-0.30543 -0.54925,-0.61295 -0.84119,-0.90857 z m -18.04008,0.31056 c 0.61231,0.61389 1.28004,1.53088 1.39937,1.9283 0.10505,0.34981 0.24583,1.33801 -0.54714,0.22241 -0.85928,-1.20889 -1.29661,-1.58005 -1.97363,-1.88485 -0.85366,-0.38433 -1.74921,0.3418 -1.96976,0.5052 -0.22054,0.1634 -1.16595,0.72665 -0.67499,-0.39943 1.40646,-1.30191 2.51694,-1.27542 3.1952,-0.85509 0.16956,0.10508 0.36685,0.27883 0.57095,0.48346 z m -1.13383,3.75673 c 0.56067,0.56772 0.55489,1.49054 -0.0128,2.0512 -0.56773,0.56067 -1.49054,0.5549 -2.05121,-0.0128 -0.56066,-0.56773 -0.49388,-1.66591 0.0738,-2.22658 0.56773,-0.56067 1.42953,-0.37952 1.9902,0.18821 z"
           id="path3051"
           inkscape:connector-curvature="0"
           sodipodi:nodetypes="ccssssszszcccccsszszssscssscccccssccscsssss" />
        <path
           style="fill:#000000;fill-opacity:1;stroke:none"
           d="m 515.47547,489.19293 c -0.55479,-0.55511 -2.95671,-2.68284 -5.89291,-1.10015 -3.31309,1.78586 -2.37537,2.81339 -1.73555,3.67769 0.63982,0.86431 1.71592,1.17753 2.67902,1.93632 0.96309,0.75879 1.34043,2.10941 2.24942,2.92163 0.90899,0.81222 2.78852,0.11826 4.19386,-1.05586 1.40534,-1.17413 0.22995,-4.52591 -1.37229,-6.25654 0,0 -0.0422,-0.0439 -0.12155,-0.12309 z m -3.902,1.02946 c 0.38361,0.38845 0.33182,1.05626 -0.0566,1.43987 -0.38845,0.38362 -0.97051,0.34178 -1.35412,-0.0467 -0.38362,-0.38844 -0.22714,-1.06501 0.1613,-1.44863 0.38845,-0.38361 0.86582,-0.33301 1.24944,0.0554 z m 3.49856,3.65624 c 0.3541,0.35856 0.13438,0.76051 -0.25407,1.14412 -0.38844,0.38362 -0.98235,0.40666 -1.33646,0.0481 -0.3541,-0.35857 -0.33298,-0.96161 0.0555,-1.34522 0.38844,-0.38362 1.18095,-0.20557 1.53506,0.153 z"
           id="path3823"
           inkscape:connector-curvature="0"
           sodipodi:nodetypes="csssssccssssssssss" />
        <path
           sodipodi:type="arc"
           style="fill:#1f1a17;fill-opacity:1;stroke:#000000;stroke-width:2;stroke-opacity:1"
           id="path3842-2"
           sodipodi:cx="355.93332"
           sodipodi:cy="510.87231"
           sodipodi:rx="0.63248926"
           sodipodi:ry="0.71155041"
           d="m 356.56581,510.87231 c 0,0.39298 -0.28318,0.71155 -0.63249,0.71155 -0.34932,0 -0.63249,-0.31857 -0.63249,-0.71155 0,-0.39297 0.28317,-0.71155 0.63249,-0.71155 0.34931,0 0.63249,0.31858 0.63249,0.71155 z"
           transform="matrix(0.28984602,0.29349578,-0.20528359,0.20273079,514.25796,252.70753)" />
        <path
           transform="matrix(0.32166747,0.32571792,-0.32571792,0.32166747,563.21039,179.02331)"
           d="m 445.71429,529.86218 c 0,34.91229 -28.302,63.21429 -63.21429,63.21429 -34.91229,0 -63.21429,-28.302 -63.21429,-63.21429 0,-34.91228 28.302,-63.21428 63.21429,-63.21428 34.91229,0 63.21429,28.302 63.21429,63.21428 z"
           sodipodi:ry="63.214287"
           sodipodi:rx="63.214287"
           sodipodi:cy="529.86218"
           sodipodi:cx="382.5"
           id="path4059"
           style="fill:none;stroke:#ffffff;stroke-width:1.86037111;stroke-opacity:1"
           sodipodi:type="arc" />
      </g>
    </g>
  </g>
</svg>
